<?xml version="1.0" encoding="UTF-8"?>
<!DOCTYPE svg PUBLIC "-//W3C//DTD SVG 1.1//EN" "http://www.w3.org/Graphics/SVG/1.1/DTD/svg11.dtd">
<svg width="308mm" height="173mm" viewBox="0 0 30800 17300" version="1.1" xmlns="http://www.w3.org/2000/svg" stroke-width="28.222" stroke-linejoin="round" xml:space="preserve">
 <path fill="rgb(255,255,255)" stroke="none" d="M 15418,17299 L 40,17299 40,0 30795,0 30795,17299 15418,17299 Z"/>
 <path fill="none" stroke="rgb(179,179,179)" stroke-linejoin="round" d="M 13323,15493 L 1396,15493 1396,346 25250,346 25250,15493 13323,15493 Z"/>
 <path fill="none" stroke="rgb(179,179,179)" stroke-linejoin="round" d="M 25250,15492 L 1396,15492"/>
 <path fill="none" stroke="rgb(179,179,179)" stroke-linejoin="round" d="M 25250,12967 L 1396,12967"/>
 <path fill="none" stroke="rgb(179,179,179)" stroke-linejoin="round" d="M 25250,10442 L 1396,10442"/>
 <path fill="none" stroke="rgb(179,179,179)" stroke-linejoin="round" d="M 25250,7919 L 1396,7919"/>
 <path fill="none" stroke="rgb(179,179,179)" stroke-linejoin="round" d="M 25250,5394 L 1396,5394"/>
 <path fill="none" stroke="rgb(179,179,179)" stroke-linejoin="round" d="M 25250,2869 L 1396,2869"/>
 <path fill="none" stroke="rgb(179,179,179)" stroke-linejoin="round" d="M 25250,345 L 1396,345"/>
 <path fill="none" stroke="rgb(179,179,179)" stroke-linejoin="round" d="M 1396,15642 L 1396,15492"/>
 <path fill="none" stroke="rgb(179,179,179)" stroke-linejoin="round" d="M 1396,15642 L 1396,15492"/>
 <path fill="none" stroke="rgb(179,179,179)" stroke-linejoin="round" d="M 1992,15642 L 1992,15492"/>
 <path fill="none" stroke="rgb(179,179,179)" stroke-linejoin="round" d="M 1992,15642 L 1992,15492"/>
 <path fill="none" stroke="rgb(179,179,179)" stroke-linejoin="round" d="M 2588,15642 L 2588,15492"/>
 <path fill="none" stroke="rgb(179,179,179)" stroke-linejoin="round" d="M 2588,15642 L 2588,15492"/>
 <path fill="none" stroke="rgb(179,179,179)" stroke-linejoin="round" d="M 3185,15642 L 3185,15492"/>
 <path fill="none" stroke="rgb(179,179,179)" stroke-linejoin="round" d="M 3185,15642 L 3185,15492"/>
 <path fill="none" stroke="rgb(179,179,179)" stroke-linejoin="round" d="M 3781,15642 L 3781,15492"/>
 <path fill="none" stroke="rgb(179,179,179)" stroke-linejoin="round" d="M 3781,15642 L 3781,15492"/>
 <path fill="none" stroke="rgb(179,179,179)" stroke-linejoin="round" d="M 4377,15642 L 4377,15492"/>
 <path fill="none" stroke="rgb(179,179,179)" stroke-linejoin="round" d="M 4377,15642 L 4377,15492"/>
 <path fill="none" stroke="rgb(179,179,179)" stroke-linejoin="round" d="M 4974,15642 L 4974,15492"/>
 <path fill="none" stroke="rgb(179,179,179)" stroke-linejoin="round" d="M 4974,15642 L 4974,15492"/>
 <path fill="none" stroke="rgb(179,179,179)" stroke-linejoin="round" d="M 5570,15642 L 5570,15492"/>
 <path fill="none" stroke="rgb(179,179,179)" stroke-linejoin="round" d="M 5570,15642 L 5570,15492"/>
 <path fill="none" stroke="rgb(179,179,179)" stroke-linejoin="round" d="M 6167,15642 L 6167,15492"/>
 <path fill="none" stroke="rgb(179,179,179)" stroke-linejoin="round" d="M 6167,15642 L 6167,15492"/>
 <path fill="none" stroke="rgb(179,179,179)" stroke-linejoin="round" d="M 6763,15642 L 6763,15492"/>
 <path fill="none" stroke="rgb(179,179,179)" stroke-linejoin="round" d="M 6763,15642 L 6763,15492"/>
 <path fill="none" stroke="rgb(179,179,179)" stroke-linejoin="round" d="M 7359,15642 L 7359,15492"/>
 <path fill="none" stroke="rgb(179,179,179)" stroke-linejoin="round" d="M 7359,15642 L 7359,15492"/>
 <path fill="none" stroke="rgb(179,179,179)" stroke-linejoin="round" d="M 7956,15642 L 7956,15492"/>
 <path fill="none" stroke="rgb(179,179,179)" stroke-linejoin="round" d="M 7956,15642 L 7956,15492"/>
 <path fill="none" stroke="rgb(179,179,179)" stroke-linejoin="round" d="M 8552,15642 L 8552,15492"/>
 <path fill="none" stroke="rgb(179,179,179)" stroke-linejoin="round" d="M 8552,15642 L 8552,15492"/>
 <path fill="none" stroke="rgb(179,179,179)" stroke-linejoin="round" d="M 9148,15642 L 9148,15492"/>
 <path fill="none" stroke="rgb(179,179,179)" stroke-linejoin="round" d="M 9148,15642 L 9148,15492"/>
 <path fill="none" stroke="rgb(179,179,179)" stroke-linejoin="round" d="M 9745,15642 L 9745,15492"/>
 <path fill="none" stroke="rgb(179,179,179)" stroke-linejoin="round" d="M 9745,15642 L 9745,15492"/>
 <path fill="none" stroke="rgb(179,179,179)" stroke-linejoin="round" d="M 10341,15642 L 10341,15492"/>
 <path fill="none" stroke="rgb(179,179,179)" stroke-linejoin="round" d="M 10341,15642 L 10341,15492"/>
 <path fill="none" stroke="rgb(179,179,179)" stroke-linejoin="round" d="M 10938,15642 L 10938,15492"/>
 <path fill="none" stroke="rgb(179,179,179)" stroke-linejoin="round" d="M 10938,15642 L 10938,15492"/>
 <path fill="none" stroke="rgb(179,179,179)" stroke-linejoin="round" d="M 11534,15642 L 11534,15492"/>
 <path fill="none" stroke="rgb(179,179,179)" stroke-linejoin="round" d="M 11534,15642 L 11534,15492"/>
 <path fill="none" stroke="rgb(179,179,179)" stroke-linejoin="round" d="M 12130,15642 L 12130,15492"/>
 <path fill="none" stroke="rgb(179,179,179)" stroke-linejoin="round" d="M 12130,15642 L 12130,15492"/>
 <path fill="none" stroke="rgb(179,179,179)" stroke-linejoin="round" d="M 12727,15642 L 12727,15492"/>
 <path fill="none" stroke="rgb(179,179,179)" stroke-linejoin="round" d="M 12727,15642 L 12727,15492"/>
 <path fill="none" stroke="rgb(179,179,179)" stroke-linejoin="round" d="M 13323,15642 L 13323,15492"/>
 <path fill="none" stroke="rgb(179,179,179)" stroke-linejoin="round" d="M 13323,15642 L 13323,15492"/>
 <path fill="none" stroke="rgb(179,179,179)" stroke-linejoin="round" d="M 13919,15642 L 13919,15492"/>
 <path fill="none" stroke="rgb(179,179,179)" stroke-linejoin="round" d="M 13919,15642 L 13919,15492"/>
 <path fill="none" stroke="rgb(179,179,179)" stroke-linejoin="round" d="M 14516,15642 L 14516,15492"/>
 <path fill="none" stroke="rgb(179,179,179)" stroke-linejoin="round" d="M 14516,15642 L 14516,15492"/>
 <path fill="none" stroke="rgb(179,179,179)" stroke-linejoin="round" d="M 15112,15642 L 15112,15492"/>
 <path fill="none" stroke="rgb(179,179,179)" stroke-linejoin="round" d="M 15112,15642 L 15112,15492"/>
 <path fill="none" stroke="rgb(179,179,179)" stroke-linejoin="round" d="M 15708,15642 L 15708,15492"/>
 <path fill="none" stroke="rgb(179,179,179)" stroke-linejoin="round" d="M 15708,15642 L 15708,15492"/>
 <path fill="none" stroke="rgb(179,179,179)" stroke-linejoin="round" d="M 16304,15642 L 16304,15492"/>
 <path fill="none" stroke="rgb(179,179,179)" stroke-linejoin="round" d="M 16304,15642 L 16304,15492"/>
 <path fill="none" stroke="rgb(179,179,179)" stroke-linejoin="round" d="M 16900,15642 L 16900,15492"/>
 <path fill="none" stroke="rgb(179,179,179)" stroke-linejoin="round" d="M 16900,15642 L 16900,15492"/>
 <path fill="none" stroke="rgb(179,179,179)" stroke-linejoin="round" d="M 17497,15642 L 17497,15492"/>
 <path fill="none" stroke="rgb(179,179,179)" stroke-linejoin="round" d="M 17497,15642 L 17497,15492"/>
 <path fill="none" stroke="rgb(179,179,179)" stroke-linejoin="round" d="M 18093,15642 L 18093,15492"/>
 <path fill="none" stroke="rgb(179,179,179)" stroke-linejoin="round" d="M 18093,15642 L 18093,15492"/>
 <path fill="none" stroke="rgb(179,179,179)" stroke-linejoin="round" d="M 18689,15642 L 18689,15492"/>
 <path fill="none" stroke="rgb(179,179,179)" stroke-linejoin="round" d="M 18689,15642 L 18689,15492"/>
 <path fill="none" stroke="rgb(179,179,179)" stroke-linejoin="round" d="M 19286,15642 L 19286,15492"/>
 <path fill="none" stroke="rgb(179,179,179)" stroke-linejoin="round" d="M 19286,15642 L 19286,15492"/>
 <path fill="none" stroke="rgb(179,179,179)" stroke-linejoin="round" d="M 19882,15642 L 19882,15492"/>
 <path fill="none" stroke="rgb(179,179,179)" stroke-linejoin="round" d="M 19882,15642 L 19882,15492"/>
 <path fill="none" stroke="rgb(179,179,179)" stroke-linejoin="round" d="M 20479,15642 L 20479,15492"/>
 <path fill="none" stroke="rgb(179,179,179)" stroke-linejoin="round" d="M 20479,15642 L 20479,15492"/>
 <path fill="none" stroke="rgb(179,179,179)" stroke-linejoin="round" d="M 21075,15642 L 21075,15492"/>
 <path fill="none" stroke="rgb(179,179,179)" stroke-linejoin="round" d="M 21075,15642 L 21075,15492"/>
 <path fill="none" stroke="rgb(179,179,179)" stroke-linejoin="round" d="M 21671,15642 L 21671,15492"/>
 <path fill="none" stroke="rgb(179,179,179)" stroke-linejoin="round" d="M 21671,15642 L 21671,15492"/>
 <path fill="none" stroke="rgb(179,179,179)" stroke-linejoin="round" d="M 22268,15642 L 22268,15492"/>
 <path fill="none" stroke="rgb(179,179,179)" stroke-linejoin="round" d="M 22268,15642 L 22268,15492"/>
 <path fill="none" stroke="rgb(179,179,179)" stroke-linejoin="round" d="M 22864,15642 L 22864,15492"/>
 <path fill="none" stroke="rgb(179,179,179)" stroke-linejoin="round" d="M 22864,15642 L 22864,15492"/>
 <path fill="none" stroke="rgb(179,179,179)" stroke-linejoin="round" d="M 23460,15642 L 23460,15492"/>
 <path fill="none" stroke="rgb(179,179,179)" stroke-linejoin="round" d="M 23460,15642 L 23460,15492"/>
 <path fill="none" stroke="rgb(179,179,179)" stroke-linejoin="round" d="M 24057,15642 L 24057,15492"/>
 <path fill="none" stroke="rgb(179,179,179)" stroke-linejoin="round" d="M 24057,15642 L 24057,15492"/>
 <path fill="none" stroke="rgb(179,179,179)" stroke-linejoin="round" d="M 24653,15642 L 24653,15492"/>
 <path fill="none" stroke="rgb(179,179,179)" stroke-linejoin="round" d="M 24653,15642 L 24653,15492"/>
 <path fill="none" stroke="rgb(179,179,179)" stroke-linejoin="round" d="M 25250,15642 L 25250,15492"/>
 <path fill="none" stroke="rgb(179,179,179)" stroke-linejoin="round" d="M 25250,15642 L 25250,15492"/>
 <path fill="none" stroke="rgb(179,179,179)" stroke-linejoin="round" d="M 1396,15492 L 25250,15492"/>
 <path fill="none" stroke="rgb(179,179,179)" stroke-linejoin="round" d="M 1246,15492 L 1396,15492"/>
 <path fill="none" stroke="rgb(179,179,179)" stroke-linejoin="round" d="M 1246,15492 L 1396,15492"/>
 <path fill="none" stroke="rgb(179,179,179)" stroke-linejoin="round" d="M 1246,12967 L 1396,12967"/>
 <path fill="none" stroke="rgb(179,179,179)" stroke-linejoin="round" d="M 1246,12967 L 1396,12967"/>
 <path fill="none" stroke="rgb(179,179,179)" stroke-linejoin="round" d="M 1246,10442 L 1396,10442"/>
 <path fill="none" stroke="rgb(179,179,179)" stroke-linejoin="round" d="M 1246,10442 L 1396,10442"/>
 <path fill="none" stroke="rgb(179,179,179)" stroke-linejoin="round" d="M 1246,7919 L 1396,7919"/>
 <path fill="none" stroke="rgb(179,179,179)" stroke-linejoin="round" d="M 1246,7919 L 1396,7919"/>
 <path fill="none" stroke="rgb(179,179,179)" stroke-linejoin="round" d="M 1246,5394 L 1396,5394"/>
 <path fill="none" stroke="rgb(179,179,179)" stroke-linejoin="round" d="M 1246,5394 L 1396,5394"/>
 <path fill="none" stroke="rgb(179,179,179)" stroke-linejoin="round" d="M 1246,2869 L 1396,2869"/>
 <path fill="none" stroke="rgb(179,179,179)" stroke-linejoin="round" d="M 1246,2869 L 1396,2869"/>
 <path fill="none" stroke="rgb(179,179,179)" stroke-linejoin="round" d="M 1246,345 L 1396,345"/>
 <path fill="none" stroke="rgb(179,179,179)" stroke-linejoin="round" d="M 1246,345 L 1396,345"/>
 <path fill="none" stroke="rgb(179,179,179)" stroke-linejoin="round" d="M 1396,15492 L 1396,345"/>
 <path fill="none" stroke="rgb(179,179,179)" stroke-linejoin="round" d="M 25400,15492 L 25250,15492"/>
 <path fill="none" stroke="rgb(179,179,179)" stroke-linejoin="round" d="M 25400,15492 L 25250,15492"/>
 <path fill="none" stroke="rgb(179,179,179)" stroke-linejoin="round" d="M 25400,13328 L 25250,13328"/>
 <path fill="none" stroke="rgb(179,179,179)" stroke-linejoin="round" d="M 25400,13328 L 25250,13328"/>
 <path fill="none" stroke="rgb(179,179,179)" stroke-linejoin="round" d="M 25400,11164 L 25250,11164"/>
 <path fill="none" stroke="rgb(179,179,179)" stroke-linejoin="round" d="M 25400,11164 L 25250,11164"/>
 <path fill="none" stroke="rgb(179,179,179)" stroke-linejoin="round" d="M 25400,9000 L 25250,9000"/>
 <path fill="none" stroke="rgb(179,179,179)" stroke-linejoin="round" d="M 25400,9000 L 25250,9000"/>
 <path fill="none" stroke="rgb(179,179,179)" stroke-linejoin="round" d="M 25400,6837 L 25250,6837"/>
 <path fill="none" stroke="rgb(179,179,179)" stroke-linejoin="round" d="M 25400,6837 L 25250,6837"/>
 <path fill="none" stroke="rgb(179,179,179)" stroke-linejoin="round" d="M 25400,4673 L 25250,4673"/>
 <path fill="none" stroke="rgb(179,179,179)" stroke-linejoin="round" d="M 25400,4673 L 25250,4673"/>
 <path fill="none" stroke="rgb(179,179,179)" stroke-linejoin="round" d="M 25400,2509 L 25250,2509"/>
 <path fill="none" stroke="rgb(179,179,179)" stroke-linejoin="round" d="M 25400,2509 L 25250,2509"/>
 <path fill="none" stroke="rgb(179,179,179)" stroke-linejoin="round" d="M 25400,344 L 25250,344"/>
 <path fill="none" stroke="rgb(179,179,179)" stroke-linejoin="round" d="M 25400,344 L 25250,344"/>
 <path fill="none" stroke="rgb(179,179,179)" stroke-linejoin="round" d="M 25250,15492 L 25250,345"/>
 <path fill="none" stroke="rgb(255,66,14)" stroke-width="80" stroke-linejoin="round" d="M 1396,15492 L 1992,13367 2588,12531 3185,13740 3781,8583 4377,12510 4974,12974 5570,7800 6167,15216 6763,14928 7359,14772 7956,7131 8552,14493 9148,11981 9745,11382 10341,9671 10938,13331 11534,13237 12130,11937 12727,12701 13323,9677 13919,12519 14516,12825 15112,13788 15708,13236 16304,9585 16900,7432 17497,7578 18093,8235 18689,8296 19286,6844 19882,10499 20479,7526 21075,11373 21671,9224 22268,9663 22864,11076 23460,7781 24057,10360 24653,12215 25250,2113"/>
 <path fill="none" stroke="rgb(255,211,32)" stroke-width="80" stroke-linejoin="round" d="M 1396,14987 L 1992,12209 2588,11957 3185,8171 3781,6151 4377,7161 4974,7666 5570,6151 6167,10695 6763,10190 7359,10695 7956,7161 8552,9685 9148,6656 9745,6404 10341,6404 10938,7161 11534,7161 12130,6151 12727,6151 13323,5899 13919,6151 14516,5899 15112,6909 15708,6656 16304,4132 16900,4132 17497,4384 18093,4384 18689,4636 19286,3122 19882,4636 20479,3879 21075,5646 21671,6909 22268,5646 22864,5646 23460,4636 24057,6909 24653,6656 25250,5141"/>
 <path fill="none" stroke="rgb(87,157,28)" stroke-width="80" stroke-linejoin="round" d="M 1396,15239 L 1992,14987 2588,14734 3185,14482 3781,14229 4377,13977 4974,13724 5570,13472 6167,13219 6763,12967 7359,12714 7956,12462 8552,12209 9148,11957 9745,11705 10341,11452 10938,11200 11534,10947 12130,10695 12727,10442 13323,10190 13919,9937 14516,9685 15112,9432 15708,9180 16304,8927 16900,8675 17497,8423 18093,8171 18689,7919 19286,7666 19882,7414 20479,7161 21075,6909 21671,6656 22268,6404 22864,6151 23460,5899 24057,5646 24653,5394 25250,5141"/>
 <path fill="none" stroke="rgb(126,0,33)" stroke-width="80" stroke-linejoin="round" d="M 1396,15239 L 1992,15239 2588,14987 3185,14987 3781,14734 4377,14734 4974,14734 5570,14482 6167,14482 6763,14482 7359,14482 7956,14482 8552,14229 9148,14229 9745,14229 10341,13977 10938,13724 11534,13724 12130,13472 12727,13472 13323,13472 13919,13472 14516,12967 15112,12967 15708,12967 16304,12967 16900,12967 17497,12967 18093,12714 18689,12714 19286,12462 19882,12462 20479,12209 21075,11957 21671,11957 22268,11957 22864,11957 23460,11957 24057,11452 24653,11452 25250,11452"/>
 <text class="TextShape" transform="translate(880,16567) rotate(-44.9) translate(-880,-16567)"><tspan class="TextParagraph" font-family="Liberation Sans, sans-serif" font-size="353px" font-weight="400"><tspan class="TextPosition" x="880" y="16567"><tspan fill="rgb(0,0,0)" stroke="none">2.000</tspan></tspan></tspan></text>
 <text class="TextShape" transform="translate(1476,16567) rotate(-44.9) translate(-1476,-16567)"><tspan class="TextParagraph" font-family="Liberation Sans, sans-serif" font-size="353px" font-weight="400"><tspan class="TextPosition" x="1476" y="16567"><tspan fill="rgb(0,0,0)" stroke="none">4.000</tspan></tspan></tspan></text>
 <text class="TextShape" transform="translate(2072,16567) rotate(-44.9) translate(-2072,-16567)"><tspan class="TextParagraph" font-family="Liberation Sans, sans-serif" font-size="353px" font-weight="400"><tspan class="TextPosition" x="2072" y="16567"><tspan fill="rgb(0,0,0)" stroke="none">6.000</tspan></tspan></tspan></text>
 <text class="TextShape" transform="translate(2669,16567) rotate(-44.9) translate(-2669,-16567)"><tspan class="TextParagraph" font-family="Liberation Sans, sans-serif" font-size="353px" font-weight="400"><tspan class="TextPosition" x="2669" y="16567"><tspan fill="rgb(0,0,0)" stroke="none">8.000</tspan></tspan></tspan></text>
 <text class="TextShape" transform="translate(3134,16697) rotate(-44.9) translate(-3134,-16697)"><tspan class="TextParagraph" font-family="Liberation Sans, sans-serif" font-size="353px" font-weight="400"><tspan class="TextPosition" x="3134" y="16697"><tspan fill="rgb(0,0,0)" stroke="none">10.000</tspan></tspan></tspan></text>
 <text class="TextShape" transform="translate(3730,16697) rotate(-44.9) translate(-3730,-16697)"><tspan class="TextParagraph" font-family="Liberation Sans, sans-serif" font-size="353px" font-weight="400"><tspan class="TextPosition" x="3730" y="16697"><tspan fill="rgb(0,0,0)" stroke="none">12.000</tspan></tspan></tspan></text>
 <text class="TextShape" transform="translate(4327,16697) rotate(-44.9) translate(-4327,-16697)"><tspan class="TextParagraph" font-family="Liberation Sans, sans-serif" font-size="353px" font-weight="400"><tspan class="TextPosition" x="4327" y="16697"><tspan fill="rgb(0,0,0)" stroke="none">14.000</tspan></tspan></tspan></text>
 <text class="TextShape" transform="translate(4923,16697) rotate(-44.9) translate(-4923,-16697)"><tspan class="TextParagraph" font-family="Liberation Sans, sans-serif" font-size="353px" font-weight="400"><tspan class="TextPosition" x="4923" y="16697"><tspan fill="rgb(0,0,0)" stroke="none">16.000</tspan></tspan></tspan></text>
 <text class="TextShape" transform="translate(5520,16697) rotate(-44.9) translate(-5520,-16697)"><tspan class="TextParagraph" font-family="Liberation Sans, sans-serif" font-size="353px" font-weight="400"><tspan class="TextPosition" x="5520" y="16697"><tspan fill="rgb(0,0,0)" stroke="none">18.000</tspan></tspan></tspan></text>
 <text class="TextShape" transform="translate(6116,16697) rotate(-44.9) translate(-6116,-16697)"><tspan class="TextParagraph" font-family="Liberation Sans, sans-serif" font-size="353px" font-weight="400"><tspan class="TextPosition" x="6116" y="16697"><tspan fill="rgb(0,0,0)" stroke="none">20.000</tspan></tspan></tspan></text>
 <text class="TextShape" transform="translate(6712,16697) rotate(-44.9) translate(-6712,-16697)"><tspan class="TextParagraph" font-family="Liberation Sans, sans-serif" font-size="353px" font-weight="400"><tspan class="TextPosition" x="6712" y="16697"><tspan fill="rgb(0,0,0)" stroke="none">22.000</tspan></tspan></tspan></text>
 <text class="TextShape" transform="translate(7309,16697) rotate(-44.9) translate(-7309,-16697)"><tspan class="TextParagraph" font-family="Liberation Sans, sans-serif" font-size="353px" font-weight="400"><tspan class="TextPosition" x="7309" y="16697"><tspan fill="rgb(0,0,0)" stroke="none">24.000</tspan></tspan></tspan></text>
 <text class="TextShape" transform="translate(7905,16697) rotate(-44.9) translate(-7905,-16697)"><tspan class="TextParagraph" font-family="Liberation Sans, sans-serif" font-size="353px" font-weight="400"><tspan class="TextPosition" x="7905" y="16697"><tspan fill="rgb(0,0,0)" stroke="none">26.000</tspan></tspan></tspan></text>
 <text class="TextShape" transform="translate(8501,16697) rotate(-44.9) translate(-8501,-16697)"><tspan class="TextParagraph" font-family="Liberation Sans, sans-serif" font-size="353px" font-weight="400"><tspan class="TextPosition" x="8501" y="16697"><tspan fill="rgb(0,0,0)" stroke="none">28.000</tspan></tspan></tspan></text>
 <text class="TextShape" transform="translate(9098,16697) rotate(-44.9) translate(-9098,-16697)"><tspan class="TextParagraph" font-family="Liberation Sans, sans-serif" font-size="353px" font-weight="400"><tspan class="TextPosition" x="9098" y="16697"><tspan fill="rgb(0,0,0)" stroke="none">30.000</tspan></tspan></tspan></text>
 <text class="TextShape" transform="translate(9694,16697) rotate(-44.9) translate(-9694,-16697)"><tspan class="TextParagraph" font-family="Liberation Sans, sans-serif" font-size="353px" font-weight="400"><tspan class="TextPosition" x="9694" y="16697"><tspan fill="rgb(0,0,0)" stroke="none">32.000</tspan></tspan></tspan></text>
 <text class="TextShape" transform="translate(10291,16697) rotate(-44.9) translate(-10291,-16697)"><tspan class="TextParagraph" font-family="Liberation Sans, sans-serif" font-size="353px" font-weight="400"><tspan class="TextPosition" x="10291" y="16697"><tspan fill="rgb(0,0,0)" stroke="none">34.000</tspan></tspan></tspan></text>
 <text class="TextShape" transform="translate(10887,16697) rotate(-44.9) translate(-10887,-16697)"><tspan class="TextParagraph" font-family="Liberation Sans, sans-serif" font-size="353px" font-weight="400"><tspan class="TextPosition" x="10887" y="16697"><tspan fill="rgb(0,0,0)" stroke="none">36.000</tspan></tspan></tspan></text>
 <text class="TextShape" transform="translate(11483,16697) rotate(-44.9) translate(-11483,-16697)"><tspan class="TextParagraph" font-family="Liberation Sans, sans-serif" font-size="353px" font-weight="400"><tspan class="TextPosition" x="11483" y="16697"><tspan fill="rgb(0,0,0)" stroke="none">38.000</tspan></tspan></tspan></text>
 <text class="TextShape" transform="translate(12080,16697) rotate(-44.9) translate(-12080,-16697)"><tspan class="TextParagraph" font-family="Liberation Sans, sans-serif" font-size="353px" font-weight="400"><tspan class="TextPosition" x="12080" y="16697"><tspan fill="rgb(0,0,0)" stroke="none">40.000</tspan></tspan></tspan></text>
 <text class="TextShape" transform="translate(12676,16697) rotate(-44.9) translate(-12676,-16697)"><tspan class="TextParagraph" font-family="Liberation Sans, sans-serif" font-size="353px" font-weight="400"><tspan class="TextPosition" x="12676" y="16697"><tspan fill="rgb(0,0,0)" stroke="none">42.000</tspan></tspan></tspan></text>
 <text class="TextShape" transform="translate(13272,16697) rotate(-44.9) translate(-13272,-16697)"><tspan class="TextParagraph" font-family="Liberation Sans, sans-serif" font-size="353px" font-weight="400"><tspan class="TextPosition" x="13272" y="16697"><tspan fill="rgb(0,0,0)" stroke="none">44.000</tspan></tspan></tspan></text>
 <text class="TextShape" transform="translate(13869,16697) rotate(-44.9) translate(-13869,-16697)"><tspan class="TextParagraph" font-family="Liberation Sans, sans-serif" font-size="353px" font-weight="400"><tspan class="TextPosition" x="13869" y="16697"><tspan fill="rgb(0,0,0)" stroke="none">46.000</tspan></tspan></tspan></text>
 <text class="TextShape" transform="translate(14465,16697) rotate(-44.9) translate(-14465,-16697)"><tspan class="TextParagraph" font-family="Liberation Sans, sans-serif" font-size="353px" font-weight="400"><tspan class="TextPosition" x="14465" y="16697"><tspan fill="rgb(0,0,0)" stroke="none">48.000</tspan></tspan></tspan></text>
 <text class="TextShape" transform="translate(15062,16697) rotate(-44.9) translate(-15062,-16697)"><tspan class="TextParagraph" font-family="Liberation Sans, sans-serif" font-size="353px" font-weight="400"><tspan class="TextPosition" x="15062" y="16697"><tspan fill="rgb(0,0,0)" stroke="none">50.000</tspan></tspan></tspan></text>
 <text class="TextShape" transform="translate(15658,16697) rotate(-44.9) translate(-15658,-16697)"><tspan class="TextParagraph" font-family="Liberation Sans, sans-serif" font-size="353px" font-weight="400"><tspan class="TextPosition" x="15658" y="16697"><tspan fill="rgb(0,0,0)" stroke="none">52.000</tspan></tspan></tspan></text>
 <text class="TextShape" transform="translate(16254,16697) rotate(-44.9) translate(-16254,-16697)"><tspan class="TextParagraph" font-family="Liberation Sans, sans-serif" font-size="353px" font-weight="400"><tspan class="TextPosition" x="16254" y="16697"><tspan fill="rgb(0,0,0)" stroke="none">54.000</tspan></tspan></tspan></text>
 <text class="TextShape" transform="translate(16851,16697) rotate(-44.9) translate(-16851,-16697)"><tspan class="TextParagraph" font-family="Liberation Sans, sans-serif" font-size="353px" font-weight="400"><tspan class="TextPosition" x="16851" y="16697"><tspan fill="rgb(0,0,0)" stroke="none">56.000</tspan></tspan></tspan></text>
 <text class="TextShape" transform="translate(17447,16697) rotate(-44.9) translate(-17447,-16697)"><tspan class="TextParagraph" font-family="Liberation Sans, sans-serif" font-size="353px" font-weight="400"><tspan class="TextPosition" x="17447" y="16697"><tspan fill="rgb(0,0,0)" stroke="none">58.000</tspan></tspan></tspan></text>
 <text class="TextShape" transform="translate(18043,16697) rotate(-44.9) translate(-18043,-16697)"><tspan class="TextParagraph" font-family="Liberation Sans, sans-serif" font-size="353px" font-weight="400"><tspan class="TextPosition" x="18043" y="16697"><tspan fill="rgb(0,0,0)" stroke="none">60.000</tspan></tspan></tspan></text>
 <text class="TextShape" transform="translate(18640,16697) rotate(-44.9) translate(-18640,-16697)"><tspan class="TextParagraph" font-family="Liberation Sans, sans-serif" font-size="353px" font-weight="400"><tspan class="TextPosition" x="18640" y="16697"><tspan fill="rgb(0,0,0)" stroke="none">62.000</tspan></tspan></tspan></text>
 <text class="TextShape" transform="translate(19236,16697) rotate(-44.9) translate(-19236,-16697)"><tspan class="TextParagraph" font-family="Liberation Sans, sans-serif" font-size="353px" font-weight="400"><tspan class="TextPosition" x="19236" y="16697"><tspan fill="rgb(0,0,0)" stroke="none">64.000</tspan></tspan></tspan></text>
 <text class="TextShape" transform="translate(19833,16697) rotate(-44.9) translate(-19833,-16697)"><tspan class="TextParagraph" font-family="Liberation Sans, sans-serif" font-size="353px" font-weight="400"><tspan class="TextPosition" x="19833" y="16697"><tspan fill="rgb(0,0,0)" stroke="none">66.000</tspan></tspan></tspan></text>
 <text class="TextShape" transform="translate(20429,16697) rotate(-44.9) translate(-20429,-16697)"><tspan class="TextParagraph" font-family="Liberation Sans, sans-serif" font-size="353px" font-weight="400"><tspan class="TextPosition" x="20429" y="16697"><tspan fill="rgb(0,0,0)" stroke="none">68.000</tspan></tspan></tspan></text>
 <text class="TextShape" transform="translate(21025,16697) rotate(-44.9) translate(-21025,-16697)"><tspan class="TextParagraph" font-family="Liberation Sans, sans-serif" font-size="353px" font-weight="400"><tspan class="TextPosition" x="21025" y="16697"><tspan fill="rgb(0,0,0)" stroke="none">70.000</tspan></tspan></tspan></text>
 <text class="TextShape" transform="translate(21622,16697) rotate(-44.9) translate(-21622,-16697)"><tspan class="TextParagraph" font-family="Liberation Sans, sans-serif" font-size="353px" font-weight="400"><tspan class="TextPosition" x="21622" y="16697"><tspan fill="rgb(0,0,0)" stroke="none">72.000</tspan></tspan></tspan></text>
 <text class="TextShape" transform="translate(22217,16697) rotate(-44.9) translate(-22217,-16697)"><tspan class="TextParagraph" font-family="Liberation Sans, sans-serif" font-size="353px" font-weight="400"><tspan class="TextPosition" x="22217" y="16697"><tspan fill="rgb(0,0,0)" stroke="none">74.000</tspan></tspan></tspan></text>
 <text class="TextShape" transform="translate(22813,16697) rotate(-44.9) translate(-22813,-16697)"><tspan class="TextParagraph" font-family="Liberation Sans, sans-serif" font-size="353px" font-weight="400"><tspan class="TextPosition" x="22813" y="16697"><tspan fill="rgb(0,0,0)" stroke="none">76.000</tspan></tspan></tspan></text>
 <text class="TextShape" transform="translate(23410,16697) rotate(-44.9) translate(-23410,-16697)"><tspan class="TextParagraph" font-family="Liberation Sans, sans-serif" font-size="353px" font-weight="400"><tspan class="TextPosition" x="23410" y="16697"><tspan fill="rgb(0,0,0)" stroke="none">78.000</tspan></tspan></tspan></text>
 <text class="TextShape" transform="translate(24006,16697) rotate(-44.9) translate(-24006,-16697)"><tspan class="TextParagraph" font-family="Liberation Sans, sans-serif" font-size="353px" font-weight="400"><tspan class="TextPosition" x="24006" y="16697"><tspan fill="rgb(0,0,0)" stroke="none">80.000</tspan></tspan></tspan></text>
 <text class="TextShape" transform="translate(24603,16697) rotate(-44.9) translate(-24603,-16697)"><tspan class="TextParagraph" font-family="Liberation Sans, sans-serif" font-size="353px" font-weight="400"><tspan class="TextPosition" x="24603" y="16697"><tspan fill="rgb(0,0,0)" stroke="none">82.000</tspan></tspan></tspan></text>
 <text class="TextShape"><tspan class="TextParagraph" font-family="Liberation Sans, sans-serif" font-size="353px" font-weight="400"><tspan class="TextPosition" x="961" y="15613"><tspan fill="rgb(0,0,0)" stroke="none">0</tspan></tspan></tspan></text>
 <text class="TextShape"><tspan class="TextParagraph" font-family="Liberation Sans, sans-serif" font-size="353px" font-weight="400"><tspan class="TextPosition" x="776" y="13088"><tspan fill="rgb(0,0,0)" stroke="none">10</tspan></tspan></tspan></text>
 <text class="TextShape"><tspan class="TextParagraph" font-family="Liberation Sans, sans-serif" font-size="353px" font-weight="400"><tspan class="TextPosition" x="776" y="10563"><tspan fill="rgb(0,0,0)" stroke="none">20</tspan></tspan></tspan></text>
 <text class="TextShape"><tspan class="TextParagraph" font-family="Liberation Sans, sans-serif" font-size="353px" font-weight="400"><tspan class="TextPosition" x="776" y="8039"><tspan fill="rgb(0,0,0)" stroke="none">30</tspan></tspan></tspan></text>
 <text class="TextShape"><tspan class="TextParagraph" font-family="Liberation Sans, sans-serif" font-size="353px" font-weight="400"><tspan class="TextPosition" x="776" y="5514"><tspan fill="rgb(0,0,0)" stroke="none">40</tspan></tspan></tspan></text>
 <text class="TextShape"><tspan class="TextParagraph" font-family="Liberation Sans, sans-serif" font-size="353px" font-weight="400"><tspan class="TextPosition" x="776" y="2989"><tspan fill="rgb(0,0,0)" stroke="none">50</tspan></tspan></tspan></text>
 <text class="TextShape"><tspan class="TextParagraph" font-family="Liberation Sans, sans-serif" font-size="353px" font-weight="400"><tspan class="TextPosition" x="776" y="465"><tspan fill="rgb(0,0,0)" stroke="none">60</tspan></tspan></tspan></text>
 <text class="TextShape"><tspan class="TextParagraph" font-family="Liberation Sans, sans-serif" font-size="353px" font-weight="400"><tspan class="TextPosition" x="25500" y="15613"><tspan fill="rgb(0,0,0)" stroke="none">0,00 %</tspan></tspan></tspan></text>
 <text class="TextShape"><tspan class="TextParagraph" font-family="Liberation Sans, sans-serif" font-size="353px" font-weight="400"><tspan class="TextPosition" x="25500" y="13449"><tspan fill="rgb(0,0,0)" stroke="none">0,50 %</tspan></tspan></tspan></text>
 <text class="TextShape"><tspan class="TextParagraph" font-family="Liberation Sans, sans-serif" font-size="353px" font-weight="400"><tspan class="TextPosition" x="25500" y="11285"><tspan fill="rgb(0,0,0)" stroke="none">1,00 %</tspan></tspan></tspan></text>
 <text class="TextShape"><tspan class="TextParagraph" font-family="Liberation Sans, sans-serif" font-size="353px" font-weight="400"><tspan class="TextPosition" x="25500" y="9121"><tspan fill="rgb(0,0,0)" stroke="none">1,50 %</tspan></tspan></tspan></text>
 <text class="TextShape"><tspan class="TextParagraph" font-family="Liberation Sans, sans-serif" font-size="353px" font-weight="400"><tspan class="TextPosition" x="25500" y="6957"><tspan fill="rgb(0,0,0)" stroke="none">2,00 %</tspan></tspan></tspan></text>
 <text class="TextShape"><tspan class="TextParagraph" font-family="Liberation Sans, sans-serif" font-size="353px" font-weight="400"><tspan class="TextPosition" x="25500" y="4793"><tspan fill="rgb(0,0,0)" stroke="none">2,50 %</tspan></tspan></tspan></text>
 <text class="TextShape"><tspan class="TextParagraph" font-family="Liberation Sans, sans-serif" font-size="353px" font-weight="400"><tspan class="TextPosition" x="25500" y="2629"><tspan fill="rgb(0,0,0)" stroke="none">3,00 %</tspan></tspan></tspan></text>
 <text class="TextShape"><tspan class="TextParagraph" font-family="Liberation Sans, sans-serif" font-size="353px" font-weight="400"><tspan class="TextPosition" x="25500" y="464"><tspan fill="rgb(0,0,0)" stroke="none">3,50 %</tspan></tspan></tspan></text>
 <path fill="none" stroke="rgb(255,66,14)" stroke-width="80" stroke-linejoin="round" d="M 27318,7902 L 28118,7902"/>
 <path fill="none" stroke="rgb(255,211,32)" stroke-width="80" stroke-linejoin="round" d="M 27318,8400 L 28118,8400"/>
 <path fill="none" stroke="rgb(87,157,28)" stroke-width="80" stroke-linejoin="round" d="M 27318,8897 L 28118,8897"/>
 <path fill="none" stroke="rgb(126,0,33)" stroke-width="80" stroke-linejoin="round" d="M 27318,9395 L 28118,9395"/>
 <text class="TextShape"><tspan class="TextParagraph" font-family="Liberation Sans, sans-serif" font-size="353px" font-weight="400"><tspan class="TextPosition" x="28218" y="8022"><tspan fill="rgb(0,0,0)" stroke="none">failure rate</tspan></tspan></tspan></text>
 <text class="TextShape"><tspan class="TextParagraph" font-family="Liberation Sans, sans-serif" font-size="353px" font-weight="400"><tspan class="TextPosition" x="28218" y="8520"><tspan fill="rgb(0,0,0)" stroke="none">rtt (ms)</tspan></tspan></tspan></text>
 <text class="TextShape"><tspan class="TextParagraph" font-family="Liberation Sans, sans-serif" font-size="353px" font-weight="400"><tspan class="TextPosition" x="28218" y="9017"><tspan fill="rgb(0,0,0)" stroke="none">simulator pods</tspan></tspan></tspan></text>
 <text class="TextShape"><tspan class="TextParagraph" font-family="Liberation Sans, sans-serif" font-size="353px" font-weight="400"><tspan class="TextPosition" x="28218" y="9515"><tspan fill="rgb(0,0,0)" stroke="none">adapter pods</tspan></tspan></tspan></text>
</svg>