<?xml version="1.0" encoding="UTF-8" standalone="no"?>
<svg
   xmlns:dc="http://purl.org/dc/elements/1.1/"
   xmlns:cc="http://creativecommons.org/ns#"
   xmlns:rdf="http://www.w3.org/1999/02/22-rdf-syntax-ns#"
   xmlns:svg="http://www.w3.org/2000/svg"
   xmlns="http://www.w3.org/2000/svg"
   style="fill-rule:evenodd;stroke-width:28.22200012;stroke-linejoin:round"
   id="svg556"
   xml:space="preserve"
   preserveAspectRatio="xMidYMid"
   viewBox="506 3610 21074.001 9148.0002"
   height="91.480003mm"
   width="210.74001mm"
   version="1.2"><metadata
   id="metadata560"><rdf:RDF><cc:Work
       rdf:about=""><dc:format>image/svg+xml</dc:format><dc:type
         rdf:resource="http://purl.org/dc/dcmitype/StillImage" /><dc:title></dc:title></cc:Work></rdf:RDF></metadata>
 <defs
   id="defs8"
   class="ClipPathGroup">
       
      
        
        
       </defs>
 <defs
   id="defs73" />
 <defs
   id="defs106" />
 <defs
   id="defs129" />
 <defs
   id="defs150" />
 <defs
   id="defs154"
   class="TextShapeIndex" />
 <defs
   id="defs186"
   class="EmbeddedBulletChars" />
 <defs
   id="defs188"
   class="TextEmbeddedBitmaps" />
 <g
   transform="translate(-1391)"
   class="com.sun.star.drawing.CustomShape"
   id="g195">
       <g
   id="id3">
        <rect
   class="BoundingBox"
   x="12033"
   y="8313"
   width="6853"
   height="1151"
   id="rect190"
   style="fill:none;stroke:none" />
        <path
   d="m 12034,8888 575,-575 v 287 h 5701 v -287 l 575,575 -575,575 v -288 h -5701 v 288 z"
   id="path192"
   style="fill:#eeeeee;stroke:none" />
       </g>
      </g><g
   transform="translate(-1391)"
   class="com.sun.star.drawing.CustomShape"
   id="g202">
       <g
   id="id4">
        <rect
   class="BoundingBox"
   x="12033"
   y="5500"
   width="6853"
   height="2536"
   id="rect197"
   style="fill:none;stroke:none" />
        <path
   d="m 12034,6133 h 5583 v -633 l 1268,1267 -1268,1268 v -634 h -5583 z"
   id="path199"
   style="fill:#eeeeee;stroke:none" />
       </g>
      </g><g
   transform="translate(-1391)"
   class="com.sun.star.drawing.CustomShape"
   id="g209">
       <g
   id="id5">
        <rect
   class="BoundingBox"
   x="9086"
   y="11193"
   width="2751"
   height="1032"
   id="rect204"
   style="fill:none;stroke:none" />
        <path
   d="m 9086,11450 h 2234 v -257 l 516,515 -516,516 v -258 H 9086 Z"
   id="path206"
   style="fill:#b7b7b7;stroke:none" />
       </g>
      </g><g
   transform="translate(-1391)"
   class="com.sun.star.drawing.CustomShape"
   id="g216">
       <g
   id="id6">
        <rect
   class="BoundingBox"
   x="9086"
   y="5822"
   width="430"
   height="6123"
   id="rect211"
   style="fill:none;stroke:none" />
        <path
   d="M 9301,11944 H 9086 V 5822 h 429 v 6122 z"
   id="path213"
   style="fill:#b7b7b7;stroke:none" />
       </g>
      </g><g
   transform="translate(-1391)"
   class="com.sun.star.drawing.CustomShape"
   id="g223">
       <g
   id="id7">
        <rect
   class="BoundingBox"
   x="3225"
   y="4832"
   width="870"
   height="879"
   id="rect218"
   style="fill:none;stroke:none" />
        <path
   d="m 3660,5710 h -435 v -878 h 869 v 878 z"
   id="path220"
   style="fill:#999999;stroke:none" />
       </g>
      </g><g
   transform="translate(-1391)"
   class="com.sun.star.drawing.CustomShape"
   id="g238">
       <g
   id="id8">
        <path
   id="rect225"
   d="m 7303,5242 h 3996 V 6273 H 7303 Z"
   style="fill:none;stroke:none" />
        <path
   d="M 9301,6272 H 7303 V 5242 h 3995 v 1030 z"
   id="path227"
   style="fill:#eeeeee;stroke:none" />
        <g
   id="text235"
   aria-label="MQTT"><path
     id="path1630"
     style="fill:#000000;stroke:none"
     d="m 8993.764,5956 v -345.8 h -41.002 l -100.776,232.674 c -2.964,7.41 -6.422,15.808 -8.892,23.218 l -8.892,-23.218 L 8733.92,5610.2 h -40.508 V 5956 h 42.978 v -212.42 c 0,-11.856 -0.494,-28.652 -1.482,-37.544 3.952,11.362 10.374,26.676 14.82,37.544 l 91.884,218.348 94.848,-217.36 c 4.94,-11.856 11.362,-27.664 15.314,-39.026 -0.494,8.892 -0.988,26.182 -0.988,38.038 V 5956 Z" /><path
     id="path1632"
     style="fill:#000000;stroke:none"
     d="m 9221.8608,5961.928 c 24.206,0 44.46,-4.446 62.244,-12.844 l 26.676,39.52 31.616,-22.23 -26.182,-38.532 c 38.038,-35.074 52.858,-91.39 52.858,-144.742 0,-85.462 -38.038,-178.828 -147.212,-178.828 -108.68,0 -146.718,93.366 -146.718,178.828 0,85.462 38.038,178.828 146.718,178.828 z m 0,-40.508 c -75.582,0 -102.258,-70.642 -102.258,-138.32 0,-62.738 26.676,-138.814 102.258,-138.814 76.076,0 102.258,71.136 102.258,138.814 0,37.05 -9.386,79.04 -32.604,106.704 l -23.712,-35.568 -32.604,22.23 24.7,37.05 c -10.868,5.434 -23.712,7.904 -38.038,7.904 z" /><path
     id="path1634"
     style="fill:#000000;stroke:none"
     d="m 9545.7009,5651.202 h 96.33 V 5610.2 h -235.638 v 41.002 h 96.33 V 5956 h 42.978 z" /><path
     id="path1636"
     style="fill:#000000;stroke:none"
     d="m 9834.1892,5651.202 h 96.33 V 5610.2 h -235.638 v 41.002 h 96.33 V 5956 h 42.978 z" /></g>
       </g>
      </g><g
   transform="translate(-1391)"
   class="com.sun.star.drawing.CustomShape"
   id="g257">
       <g
   id="id9">
        <path
   id="rect240"
   d="m 12945,5242 h 2192 v 5253 h -2192 z"
   style="fill:none;stroke:none" />
        <path
   d="M 14041,10494 H 12945 V 5242 h 2191 v 5252 z"
   id="path242"
   style="fill:#cc0000;stroke:none" />
        <g
   id="text254"
   aria-label="AMQP 1.0"><path
     id="path1640"
     style="fill:#ffffff;stroke:none"
     d="m 13598.17,7771 h 71.63 l -132.392,-345.8 h -65.208 l -132.392,345.8 h 71.63 l 26.676,-71.63 h 133.38 z m -48.412,-132.392 h -89.908 l 34.086,-89.908 c 3.458,-8.892 8.398,-22.23 10.868,-31.122 2.47,8.892 7.41,22.23 10.868,31.122 z" /><path
     id="path1642"
     style="fill:#ffffff;stroke:none"
     d="m 14041.118,7771 v -345.8 h -63.726 l -86.45,190.684 c -3.458,7.904 -6.422,16.302 -8.892,23.712 -2.47,-7.41 -5.434,-15.808 -8.892,-23.712 L 13788.19,7425.2 h -67.678 V 7771 h 66.69 v -177.84 c 0,-7.41 -0.494,-19.266 -0.988,-27.17 3.458,9.88 6.916,19.266 10.374,27.17 l 84.474,183.768 83.98,-183.768 c 3.458,-7.904 6.916,-17.29 10.374,-27.17 -0.494,7.904 -0.988,19.76 -0.988,27.17 V 7771 Z" /><path
     id="path1644"
     style="fill:#ffffff;stroke:none"
     d="m 14260.254,7776.928 c 19.266,0 35.568,-2.964 50.882,-7.41 l 24.206,35.568 49.4,-32.604 -22.724,-33.592 c 35.567,-35.568 50.388,-88.92 50.388,-140.79 0,-85.462 -40.509,-178.828 -152.152,-178.828 -111.644,0 -152.646,93.366 -152.646,178.828 0,85.462 41.002,178.828 152.646,178.828 z m 0,-64.22 c -62.244,0 -83.486,-62.244 -83.486,-114.608 0,-49.894 20.747,-114.608 83.486,-114.608 62.243,0 82.992,61.75 82.992,114.608 0,26.182 -5.929,58.786 -21.242,80.522 l -24.7,-37.544 -50.389,32.604 25.195,37.544 c -3.953,0.988 -7.904,1.482 -11.856,1.482 z" /><path
     id="path1646"
     style="fill:#ffffff;stroke:none"
     d="m 14478.879,7771 h 66.69 v -127.452 h 81.51 c 84.474,0 118.066,-58.786 118.066,-109.174 0,-53.846 -30.628,-109.174 -118.066,-109.174 h -148.2 z m 151.164,-190.684 h -84.474 v -91.884 h 84.474 c 35.568,0 45.942,26.182 45.942,45.942 0,21.736 -12.35,45.942 -45.942,45.942 z" /><path
     id="path1648"
     style="fill:#ffffff;stroke:none"
     d="m 13785.666,8363 h 66.69 v -345.8 h -53.352 c -9.386,28.158 -33.098,37.05 -66.196,37.05 v 52.858 h 52.858 z" /><path
     id="path1650"
     style="fill:#ffffff;stroke:none"
     d="m 13978.897,8368.928 c 23.712,0 41.99,-17.29 41.99,-40.508 0,-22.724 -18.278,-41.002 -41.99,-41.002 -23.712,0 -41.496,18.278 -41.496,41.002 0,23.218 17.784,40.508 41.496,40.508 z" /><path
     id="path1652"
     style="fill:#ffffff;stroke:none"
     d="m 14201.313,8368.928 c 99.294,0 127.452,-93.86 127.452,-178.828 0,-86.45 -28.158,-178.828 -127.452,-178.828 -99.294,0 -127.452,93.366 -127.452,178.828 0,84.968 28.158,178.828 127.452,178.828 z m 0,-63.232 c -46.93,0 -60.762,-57.798 -60.762,-115.596 0,-57.798 13.832,-115.596 60.762,-115.596 46.93,0 60.762,57.798 60.762,115.596 0,57.798 -13.832,115.596 -60.762,115.596 z" /></g>
       </g>
      </g><g
   transform="translate(-1391)"
   class="com.sun.star.drawing.CustomShape"
   id="g296">
       <g
   id="id10">
        <rect
   class="BoundingBox"
   x="6403"
   y="3612"
   width="83"
   height="9146"
   id="rect259"
   style="fill:none;stroke:none" />
        <path
   d="m 6443,3652 v 316"
   id="path261"
   style="fill:none;stroke:#000000;stroke-width:79;stroke-linejoin:round" />
        <path
   d="m 6443,4205 v 316"
   id="path263"
   style="fill:none;stroke:#000000;stroke-width:79;stroke-linejoin:round" />
        <path
   d="m 6443,4758 v 316"
   id="path265"
   style="fill:none;stroke:#000000;stroke-width:79;stroke-linejoin:round" />
        <path
   d="m 6443,5311 v 316"
   id="path267"
   style="fill:none;stroke:#000000;stroke-width:79;stroke-linejoin:round" />
        <path
   d="m 6443,5864 1,316"
   id="path269"
   style="fill:none;stroke:#000000;stroke-width:79;stroke-linejoin:round" />
        <path
   d="m 6444,6417 v 316"
   id="path271"
   style="fill:none;stroke:#000000;stroke-width:79;stroke-linejoin:round" />
        <path
   d="m 6444,6970 v 316"
   id="path273"
   style="fill:none;stroke:#000000;stroke-width:79;stroke-linejoin:round" />
        <path
   d="m 6444,7523 v 316"
   id="path275"
   style="fill:none;stroke:#000000;stroke-width:79;stroke-linejoin:round" />
        <path
   d="m 6444,8076 v 316"
   id="path277"
   style="fill:none;stroke:#000000;stroke-width:79;stroke-linejoin:round" />
        <path
   d="m 6444,8629 v 316"
   id="path279"
   style="fill:none;stroke:#000000;stroke-width:79;stroke-linejoin:round" />
        <path
   d="m 6444,9182 v 316"
   id="path281"
   style="fill:none;stroke:#000000;stroke-width:79;stroke-linejoin:round" />
        <path
   d="m 6444,9735 v 316"
   id="path283"
   style="fill:none;stroke:#000000;stroke-width:79;stroke-linejoin:round" />
        <path
   d="m 6444,10288 1,316"
   id="path285"
   style="fill:none;stroke:#000000;stroke-width:79;stroke-linejoin:round" />
        <path
   d="m 6445,10841 v 316"
   id="path287"
   style="fill:none;stroke:#000000;stroke-width:79;stroke-linejoin:round" />
        <path
   d="m 6445,11394 v 316"
   id="path289"
   style="fill:none;stroke:#000000;stroke-width:79;stroke-linejoin:round" />
        <path
   d="m 6445,11947 v 316"
   id="path291"
   style="fill:none;stroke:#000000;stroke-width:79;stroke-linejoin:round" />
        <path
   d="m 6445,12500 v 217"
   id="path293"
   style="fill:none;stroke:#000000;stroke-width:79;stroke-linejoin:round" />
       </g>
      </g><g
   transform="translate(-1391)"
   id="text306"
   aria-label="Edge"><path
     id="path1572"
     style="fill:#000000;stroke:none"
     d="m 4136.52,4358 h 246.506 v -63.232 H 4203.21 v -83.486 h 99.788 v -63.232 h -99.788 v -72.618 h 169.442 V 4012.2 H 4136.52 Z" /><path
     id="path1574"
     style="fill:#000000;stroke:none"
     d="m 4524.0707,4363.928 c 25.688,0 43.966,-8.892 54.34,-24.206 V 4358 h 64.22 v -356.668 l -64.22,29.146 v 93.366 c -11.362,-14.326 -28.652,-24.206 -53.846,-24.206 -60.268,0 -104.728,50.388 -104.728,131.898 0,85.462 41.002,132.392 104.234,132.392 z m 10.374,-61.75 c -33.098,0 -50.388,-27.17 -50.388,-70.642 0,-45.448 18.278,-70.148 50.388,-70.148 22.23,0 37.05,11.362 43.966,20.748 v 99.788 c -9.386,13.338 -22.724,20.254 -43.966,20.254 z" /><path
     id="path1576"
     style="fill:#000000;stroke:none"
     d="m 4808.2056,4456.8 c 95.342,-7.41 119.054,-45.942 119.054,-132.886 v -218.348 h -64.22 v 13.338 c -13.338,-12.844 -31.122,-19.266 -53.846,-19.266 -61.75,0 -104.728,50.388 -104.728,131.898 0,87.932 43.966,132.392 104.234,132.392 19.76,0 39.026,-3.952 54.34,-19.266 v 6.916 c 0,36.556 -22.23,46.436 -90.402,51.87 z m 10.868,-154.622 c -34.086,0 -50.388,-29.146 -50.388,-70.642 0,-45.448 18.278,-70.148 50.388,-70.148 24.206,0 36.062,11.362 43.966,20.748 v 99.788 c -9.88,13.338 -22.724,20.254 -43.966,20.254 z" /><path
     id="path1578"
     style="fill:#000000;stroke:none"
     d="m 5107.1605,4363.928 c 41.99,0 72.618,-16.796 93.86,-42.484 l -39.52,-40.014 c -14.326,18.278 -31.122,26.182 -54.34,26.182 -27.664,0 -52.364,-18.278 -54.834,-50.882 h 164.502 c 1.976,-13.832 1.976,-28.158 1.976,-38.038 0,-81.016 -49.4,-119.054 -111.644,-119.054 -72.124,0 -118.066,50.388 -118.066,131.898 0,82.992 44.954,132.392 118.066,132.392 z m -54.34,-161.538 c 3.952,-31.616 24.206,-46.436 54.34,-46.436 25.688,0 44.954,16.796 48.906,46.436 z" /></g><g
   transform="translate(-1391)"
   class="com.sun.star.drawing.CustomShape"
   id="g322">
       <g
   id="id12">
        <path
   id="rect311"
   d="m 7111,3610 h 3437 V 4641 H 7111 Z"
   style="fill:none;stroke:none" />
        <g
   id="text319"
   aria-label="Cloud"><path
     id="path1582"
     style="fill:#000000;stroke:none"
     d="m 7537.406,4363.434 c 62.738,0 101.27,-35.074 123.994,-85.462 l -61.256,-23.218 c -15.808,26.182 -34.58,44.46 -62.738,44.46 -53.352,0 -76.076,-60.762 -76.076,-114.114 0,-50.882 18.278,-114.114 76.076,-114.114 30.134,0 46.436,14.82 63.726,41.002 l 59.774,-27.17 c -15.808,-39.026 -57.304,-78.052 -123.5,-78.052 -107.198,0 -145.236,99.294 -145.236,178.334 0,85.462 37.05,178.334 145.236,178.334 z" /><path
     id="path1584"
     style="fill:#000000;stroke:none"
     d="m 7720.9888,4358 h 64.2199 v -356.668 l -64.2199,30.134 z" /><path
     id="path1586"
     style="fill:#000000;stroke:none"
     d="m 7965.0556,4363.928 c 71.136,0 116.09,-48.906 116.09,-131.898 0,-82.004 -44.954,-132.392 -116.09,-132.392 -71.136,0 -116.09,50.388 -116.09,132.392 0,82.992 44.954,131.898 116.09,131.898 z m 0,-61.75 c -31.616,0 -51.87,-26.182 -51.87,-70.148 0,-43.966 20.254,-70.642 51.87,-70.642 32.604,0 51.87,26.676 51.87,70.642 0,43.966 -19.266,70.148 -51.87,70.148 z" /><path
     id="path1588"
     style="fill:#000000;stroke:none"
     d="m 8296.684,4358 h 64.22 v -252.434 h -64.22 v 139.308 c 0,40.508 -17.29,57.304 -47.918,57.304 -30.134,0 -43.966,-17.784 -43.966,-58.292 v -138.32 h -64.22 v 159.068 c 0,75.088 45.448,99.294 88.426,99.294 29.146,0 52.364,-10.374 67.678,-29.64 z" /><path
     id="path1590"
     style="fill:#000000;stroke:none"
     d="m 8527.2817,4363.928 c 25.688,0 43.966,-8.892 54.34,-24.206 V 4358 h 64.22 v -356.668 l -64.22,29.146 v 93.366 c -11.362,-14.326 -28.652,-24.206 -53.846,-24.206 -60.268,0 -104.728,50.388 -104.728,131.898 0,85.462 41.002,132.392 104.234,132.392 z m 10.374,-61.75 c -33.098,0 -50.388,-27.17 -50.388,-70.642 0,-45.448 18.278,-70.148 50.388,-70.148 22.23,0 37.05,11.362 43.966,20.748 v 99.788 c -9.386,13.338 -22.724,20.254 -43.966,20.254 z" /></g>
       </g>
      </g><g
   transform="translate(-1391)"
   class="com.sun.star.drawing.CustomShape"
   id="g337">
       <g
   id="id13">
        <path
   id="rect324"
   d="m 7303,6649 h 3996 V 7680 H 7303 Z"
   style="fill:none;stroke:none" />
        <path
   d="M 9301,7679 H 7303 V 6649 h 3995 v 1030 z"
   id="path326"
   style="fill:#eeeeee;stroke:none" />
        <g
   id="text334"
   aria-label="HTTP"><path
     id="path1620"
     style="fill:#000000;stroke:none"
     d="m 8937.41,7363 h 42.978 v -345.8 h -42.978 v 146.224 H 8774.39 V 7017.2 h -42.978 V 7363 h 42.978 v -159.068 h 163.02 z" /><path
     id="path1622"
     style="fill:#000000;stroke:none"
     d="m 9193.9041,7058.202 h 96.33 V 7017.2 h -235.638 v 41.002 h 96.33 V 7363 h 42.978 z" /><path
     id="path1624"
     style="fill:#000000;stroke:none"
     d="m 9482.3923,7058.202 h 96.33 V 7017.2 h -235.638 v 41.002 h 96.33 V 7363 h 42.978 z" /><path
     id="path1626"
     style="fill:#000000;stroke:none"
     d="m 9653.8026,7363 h 42.978 v -138.814 h 89.414 c 81.016,0 111.644,-55.822 111.644,-103.246 0,-51.376 -27.664,-103.74 -111.644,-103.74 h -132.392 z m 135.356,-178.828 h -92.378 v -126.958 h 92.378 c 51.87,0 65.702,36.556 65.702,63.726 0,29.64 -16.796,63.232 -65.702,63.232 z" /></g>
       </g>
      </g><g
   transform="translate(-1391)"
   class="com.sun.star.drawing.CustomShape"
   id="g352">
       <g
   id="id14">
        <path
   id="rect339"
   d="m 7303,8057 h 3996 V 9088 H 7303 Z"
   style="fill:none;stroke:none" />
        <path
   d="M 9301,9087 H 7303 V 8057 h 3995 v 1030 z"
   id="path341"
   style="fill:#eeeeee;stroke:none" />
        <g
   id="text349"
   aria-label="LoRaWAN"><path
     id="path1604"
     style="fill:#000000;stroke:none"
     d="m 8249.412,8771 h 212.914 v -41.496 H 8292.39 V 8425.2 h -42.978 z" /><path
     id="path1606"
     style="fill:#000000;stroke:none"
     d="m 8614.7713,8776.928 c 67.678,0 111.644,-49.4 111.644,-132.392 0,-83.486 -43.966,-131.898 -111.644,-131.898 -67.678,0 -111.644,49.4 -111.644,132.392 0,83.486 43.966,131.898 111.644,131.898 z m 0,-40.014 c -42.978,0 -68.172,-34.58 -68.172,-91.884 0,-58.786 25.194,-92.872 68.172,-92.872 42.978,0 68.172,35.074 68.172,92.378 0,57.798 -25.688,92.378 -68.172,92.378 z" /><path
     id="path1608"
     style="fill:#000000;stroke:none"
     d="m 8801.3026,8771 h 42.978 v -148.2 h 76.57 l 71.136,148.2 h 48.412 l -74.1,-151.164 c 57.798,-11.856 80.522,-55.328 80.522,-96.33 0,-48.906 -26.182,-98.306 -109.174,-98.306 h -136.344 z m 42.978,-188.214 v -117.572 h 94.354 c 50.882,0 64.714,33.592 64.714,59.28 0,28.652 -16.302,58.292 -64.714,58.292 z" /><path
     id="path1610"
     style="fill:#000000;stroke:none"
     d="m 9261.8573,8771 h 40.508 v -167.466 c 0,-77.558 -50.388,-90.896 -89.908,-90.896 -38.038,0 -71.136,13.338 -91.39,26.676 l 12.35,36.062 c 18.772,-13.338 45.448,-25.194 73.606,-25.194 32.604,0 54.834,12.35 54.834,56.81 v 17.784 c -20.748,-11.856 -42.978,-16.302 -65.208,-16.302 -48.906,0 -94.354,25.194 -94.354,83.486 0,56.316 36.556,84.968 87.932,84.968 30.134,0 54.834,-13.338 71.63,-29.146 z m -65.208,-32.11 c -34.58,0 -53.846,-18.772 -53.846,-46.93 0,-32.11 27.17,-46.436 59.774,-46.436 20.748,0 43.966,7.41 59.28,16.796 v 43.472 c -14.326,16.796 -37.05,33.098 -65.208,33.098 z" /><path
     id="path1612"
     style="fill:#000000;stroke:none"
     d="m 9426.174,8771 h 35.074 l 66.69,-236.132 c 3.952,-14.326 6.422,-24.206 8.398,-34.086 1.976,9.88 4.94,19.76 8.892,34.086 l 66.69,236.132 h 34.086 l 75.088,-345.8 h -43.966 l -46.93,224.77 c -2.964,14.326 -4.94,24.7 -6.422,34.086 -1.482,-9.386 -3.952,-19.266 -7.904,-33.592 L 9554.12,8425.2 h -34.086 l -61.256,225.758 c -3.952,15.314 -7.41,26.182 -9.386,36.556 -1.482,-10.374 -3.458,-21.736 -6.422,-37.05 L 9400.486,8425.2 h -44.954 z" /><path
     id="path1614"
     style="fill:#000000;stroke:none"
     d="m 9990.7543,8771 h 43.9657 l -122.5117,-345.8 h -40.014 l -122.512,345.8 h 44.954 l 29.146,-84.474 h 137.332 z m -42.978,-122.512 h -111.15 l 44.954,-127.946 c 3.458,-9.88 8.398,-26.182 10.868,-35.074 1.976,8.892 7.41,25.194 10.868,35.074 z" /><path
     id="path1616"
     style="fill:#000000;stroke:none"
     d="m 10351.945,8771 v -345.8 h -42.978 v 246.506 c 0,7.904 0.494,16.302 0.988,25.194 -4.94,-9.386 -9.386,-17.29 -14.326,-25.688 l -153.14,-246.012 h -43.472 V 8771 h 42.978 v -247 c 0,-7.904 -0.494,-16.796 -0.988,-24.206 4.446,8.398 9.386,16.796 13.832,24.206 l 155.61,247 z" /></g>
       </g>
      </g><g
   transform="translate(-1391)"
   class="com.sun.star.drawing.CustomShape"
   id="g367">
       <g
   id="id15">
        <path
   id="rect354"
   d="m 7303,9464 h 3996 v 1031 H 7303 Z"
   style="fill:none;stroke:none" />
        <path
   d="M 9301,10494 H 7303 V 9464 h 3995 v 1030 z"
   id="path356"
   style="fill:#eeeeee;stroke:none" />
        <g
   id="text364"
   aria-label="CoAP"><path
     id="path1594"
     style="fill:#000000;stroke:none"
     d="m 8859.852,10183.928 c 60.762,0 96.824,-31.122 114.608,-69.654 l -39.52,-14.82 c -15.808,26.182 -37.05,43.966 -75.088,43.966 -69.16,0 -98.8,-69.654 -98.8,-138.32 0,-63.232 24.7,-138.814 98.8,-138.814 38.038,0 56.81,17.784 73.112,41.99 l 38.532,-19.76 c -15.314,-31.122 -47.918,-62.244 -111.644,-62.244 -102.752,0 -143.26,91.884 -143.26,178.828 0,87.932 38.532,178.828 143.26,178.828 z" /><path
     id="path1596"
     style="fill:#000000;stroke:none"
     d="m 9140.1893,10183.928 c 67.678,0 111.644,-49.4 111.644,-132.392 0,-83.486 -43.966,-131.898 -111.644,-131.898 -67.678,0 -111.644,49.4 -111.644,132.392 0,83.486 43.966,131.898 111.644,131.898 z m 0,-40.014 c -42.978,0 -68.172,-34.58 -68.172,-91.884 0,-58.786 25.194,-92.872 68.172,-92.872 42.978,0 68.172,35.074 68.172,92.378 0,57.798 -25.688,92.378 -68.172,92.378 z" /><path
     id="path1598"
     style="fill:#000000;stroke:none"
     d="m 9541.6801,10178 h 43.966 l -122.512,-345.8 h -40.014 l -122.512,345.8 h 44.954 l 29.146,-84.474 h 137.332 z m -42.978,-122.512 h -111.15 l 44.954,-127.946 c 3.458,-9.88 8.398,-26.182 10.868,-35.074 1.976,8.892 7.41,25.194 10.868,35.074 z" /><path
     id="path1600"
     style="fill:#000000;stroke:none"
     d="m 9649.9433,10178 h 42.9779 v -138.814 h 89.4141 c 81.016,0 111.644,-55.822 111.644,-103.246 0,-51.376 -27.664,-103.74 -111.644,-103.74 h -132.392 z m 135.356,-178.828 h -92.3781 v -126.958 h 92.3781 c 51.87,0 65.7019,36.556 65.7019,63.726 0,29.64 -16.7959,63.232 -65.7019,63.232 z" /></g>
       </g>
      </g><g
   transform="translate(-1391)"
   class="com.sun.star.drawing.CustomShape"
   id="g386">
       <g
   id="id16">
        <path
   id="rect369"
   d="m 19475,7122 h 3496 v 1493 h -3496 z"
   style="fill:none;stroke:none" />
        <path
   d="M 21223,8614 H 19475 V 7122 h 3495 v 1492 z"
   id="path371"
   style="fill:#b7b7b7;stroke:none" />
        <g
   id="text383"
   aria-label="Customer Applications"><path
     id="path1724"
     style="fill:#000000;stroke:none"
     d="m 20159.494,7776.916 c 60.639,0 96.628,-31.059 114.376,-69.513 l -39.44,-14.79 c -15.776,26.129 -36.975,43.877 -74.936,43.877 -69.02,0 -98.6,-69.513 -98.6,-138.04 0,-63.104 24.65,-138.533 98.6,-138.533 37.961,0 56.695,17.748 72.964,41.905 l 38.454,-19.72 c -15.283,-31.059 -47.821,-62.118 -111.418,-62.118 -102.544,0 -142.97,91.698 -142.97,178.466 0,87.754 38.454,178.466 142.97,178.466 z" /><path
     id="path1726"
     style="fill:#000000;stroke:none"
     d="m 20495.466,7771 h 42.891 v -251.923 h -42.891 v 152.83 c 0,49.3 -25.143,65.076 -58.174,65.076 -31.059,0 -54.23,-18.241 -54.23,-66.062 v -151.844 h -42.891 v 145.435 c 0,80.852 32.538,112.404 91.698,112.404 26.622,0 46.835,-8.381 63.597,-30.073 z" /><path
     id="path1728"
     style="fill:#000000;stroke:none"
     d="m 20694.391,7776.916 c 54.723,0 89.726,-26.129 89.726,-71.485 0,-47.821 -35.989,-67.541 -81.838,-83.81 -28.101,-11.339 -53.244,-20.706 -53.244,-41.905 0,-17.748 16.269,-28.101 41.905,-28.101 27.115,0 44.863,12.818 55.709,24.157 l 29.58,-24.65 c -18.241,-21.692 -46.342,-37.961 -84.796,-37.961 -48.314,0 -84.796,25.143 -84.796,66.555 0,41.412 31.552,61.625 77.894,78.88 29.58,11.339 57.681,22.678 57.681,47.821 0,22.185 -20.213,32.045 -46.835,32.045 -27.115,0 -48.807,-16.269 -61.625,-30.073 l -30.566,26.129 c 19.72,25.143 54.23,42.398 91.205,42.398 z" /><path
     id="path1730"
     style="fill:#000000;stroke:none"
     d="m 20919.076,7776.916 c 19.72,0 35.003,-4.437 48.314,-11.339 l 4.93,-41.905 c -10.846,6.902 -23.171,13.311 -37.468,13.311 -22.185,0 -26.129,-15.283 -26.129,-34.51 v -145.928 h 62.118 v -37.468 h -62.118 v -104.023 l -42.891,20.706 v 83.317 h -40.919 v 37.468 h 40.919 v 160.225 c 0,35.496 15.283,60.146 53.244,60.146 z" /><path
     id="path1732"
     style="fill:#000000;stroke:none"
     d="m 21126.768,7776.916 c 67.541,0 111.418,-49.3 111.418,-132.124 0,-83.317 -43.877,-131.631 -111.418,-131.631 -67.541,0 -111.418,49.3 -111.418,132.124 0,83.317 43.877,131.631 111.418,131.631 z m 0,-39.933 c -42.891,0 -68.034,-34.51 -68.034,-91.698 0,-58.667 25.143,-92.684 68.034,-92.684 42.891,0 68.034,35.003 68.034,92.191 0,57.681 -25.636,92.191 -68.034,92.191 z" /><path
     id="path1734"
     style="fill:#000000;stroke:none"
     d="m 21600.833,7771 h 42.891 v -165.155 c 0,-61.132 -38.454,-92.684 -88.74,-92.684 -32.538,0 -58.174,14.297 -72.964,36.975 -14.297,-24.65 -40.426,-36.975 -67.541,-36.975 -26.622,0 -50.779,9.367 -66.062,29.58 v -23.664 h -42.891 V 7771 h 42.891 v -153.323 c 0,-39.933 20.706,-65.076 54.23,-65.076 38.947,0 50.286,31.059 50.286,65.569 V 7771 h 42.891 v -151.351 c 0,-39.933 21.692,-67.048 54.23,-67.048 38.947,0 50.779,31.059 50.779,65.569 z" /><path
     id="path1736"
     style="fill:#000000;stroke:none"
     d="m 21819.579,7776.916 c 34.017,0 62.611,-13.804 81.345,-32.538 l -26.129,-29.087 c -15.776,15.776 -35.003,22.678 -54.23,22.678 -37.961,0 -65.569,-30.073 -69.02,-76.415 h 170.578 c 0.986,-9.86 1.479,-20.706 1.479,-28.594 0,-82.824 -47.328,-119.799 -104.023,-119.799 -67.048,0 -111.911,48.314 -111.911,131.631 0,76.908 42.891,132.124 111.911,132.124 z m -68.527,-151.844 c 2.465,-51.765 32.045,-73.95 68.527,-73.95 26.622,0 60.146,16.762 60.639,73.95 z" /><path
     id="path1738"
     style="fill:#000000;stroke:none"
     d="m 21987.253,7771 h 42.891 v -141.984 c 0,-57.188 32.045,-73.457 56.202,-73.457 17.255,0 28.101,5.423 35.989,10.846 l 6.409,-40.426 c -8.874,-7.395 -22.678,-12.818 -38.947,-12.818 -28.101,0 -48.314,13.804 -59.653,38.947 v -33.031 h -42.891 z" /><path
     id="path1740"
     style="fill:#000000;stroke:none"
     d="m 20248.727,8362 h 43.877 l -122.264,-345.1 h -39.933 l -122.264,345.1 h 44.863 l 29.087,-84.303 h 137.054 z m -42.891,-122.264 h -110.925 l 44.863,-127.687 c 3.451,-9.86 8.381,-26.129 10.846,-35.003 1.972,8.874 7.395,25.143 10.846,35.003 z" /><path
     id="path1742"
     style="fill:#000000;stroke:none"
     d="m 20466.479,8367.916 c 61.132,0 104.023,-48.314 104.023,-132.124 0,-80.852 -39.933,-131.631 -104.023,-131.631 -31.552,0 -49.793,12.325 -64.583,27.115 v -21.199 h -42.891 v 351.509 l 42.891,-20.213 v -103.037 c 13.311,15.776 32.045,29.58 64.583,29.58 z m -5.423,-39.933 c -25.636,0 -44.863,-15.283 -59.16,-34.017 v -116.348 c 12.325,-21.692 33.524,-34.017 59.16,-34.017 41.412,0 65.569,37.468 65.569,92.191 0,59.653 -23.664,92.191 -65.569,92.191 z" /><path
     id="path1744"
     style="fill:#000000;stroke:none"
     d="m 20744.754,8367.916 c 61.132,0 104.023,-48.314 104.023,-132.124 0,-80.852 -39.933,-131.631 -104.023,-131.631 -31.552,0 -49.793,12.325 -64.583,27.115 v -21.199 h -42.891 v 351.509 l 42.891,-20.213 v -103.037 c 13.311,15.776 32.045,29.58 64.583,29.58 z m -5.423,-39.933 c -25.636,0 -44.863,-15.283 -59.16,-34.017 v -116.348 c 12.325,-21.692 33.524,-34.017 59.16,-34.017 41.412,0 65.569,37.468 65.569,92.191 0,59.653 -23.664,92.191 -65.569,92.191 z" /><path
     id="path1746"
     style="fill:#000000;stroke:none"
     d="m 20918.021,8362 h 42.891 v -355.946 l -42.891,20.213 z" /><path
     id="path1748"
     style="fill:#000000;stroke:none"
     d="m 21066.275,8064.228 c 15.283,0 27.115,-11.832 27.115,-26.622 0,-15.283 -11.832,-27.608 -27.115,-27.608 -14.79,0 -26.622,12.325 -26.622,27.608 0,14.79 11.832,26.622 26.622,26.622 z M 21045.076,8362 h 42.891 v -251.923 h -42.891 z" /><path
     id="path1750"
     style="fill:#000000;stroke:none"
     d="m 21259.485,8367.916 c 46.342,0 79.866,-23.171 92.191,-64.583 l -39.933,-13.311 c -7.395,23.664 -26.129,37.468 -51.272,37.468 -40.426,0 -61.625,-34.017 -61.625,-91.205 0,-56.695 20.213,-92.191 63.104,-92.191 24.65,0 39.933,14.297 47.328,33.524 l 40.426,-14.79 c -14.297,-39.44 -46.342,-58.667 -88.247,-58.667 -66.062,0 -106.488,49.3 -106.488,132.124 0,83.317 40.426,131.631 104.516,131.631 z" /><path
     id="path1752"
     style="fill:#000000;stroke:none"
     d="m 21555.893,8362 h 40.426 v -167.127 c 0,-77.401 -50.286,-90.712 -89.726,-90.712 -37.961,0 -70.992,13.311 -91.205,26.622 l 12.325,35.989 c 18.734,-13.311 45.356,-25.143 73.457,-25.143 32.538,0 54.723,12.325 54.723,56.695 v 17.748 c -20.706,-11.832 -42.891,-16.269 -65.076,-16.269 -48.807,0 -94.163,25.143 -94.163,83.317 0,56.202 36.482,84.796 87.754,84.796 30.073,0 54.723,-13.311 71.485,-29.087 z m -65.076,-32.045 c -34.51,0 -53.737,-18.734 -53.737,-46.835 0,-32.045 27.115,-46.342 59.653,-46.342 20.706,0 43.877,7.395 59.16,16.762 v 43.384 c -14.297,16.762 -36.975,33.031 -65.076,33.031 z" /><path
     id="path1754"
     style="fill:#000000;stroke:none"
     d="m 21738.496,8367.916 c 19.72,0 35.003,-4.437 48.314,-11.339 l 4.93,-41.905 c -10.846,6.902 -23.171,13.311 -37.468,13.311 -22.185,0 -26.129,-15.283 -26.129,-34.51 v -145.928 h 62.118 v -37.468 h -62.118 v -104.023 l -42.891,20.706 v 83.317 h -40.919 v 37.468 h 40.919 v 160.225 c 0,35.496 15.283,60.146 53.244,60.146 z" /><path
     id="path1756"
     style="fill:#000000;stroke:none"
     d="m 21876.066,8064.228 c 15.283,0 27.115,-11.832 27.115,-26.622 0,-15.283 -11.832,-27.608 -27.115,-27.608 -14.79,0 -26.622,12.325 -26.622,27.608 0,14.79 11.832,26.622 26.622,26.622 z M 21854.867,8362 h 42.891 v -251.923 h -42.891 z" /><path
     id="path1758"
     style="fill:#000000;stroke:none"
     d="m 22076.178,8367.916 c 67.541,0 111.418,-49.3 111.418,-132.124 0,-83.317 -43.877,-131.631 -111.418,-131.631 -67.541,0 -111.418,49.3 -111.418,132.124 0,83.317 43.877,131.631 111.418,131.631 z m 0,-39.933 c -42.891,0 -68.034,-34.51 -68.034,-91.698 0,-58.667 25.143,-92.684 68.034,-92.684 42.891,0 68.034,35.003 68.034,92.191 0,57.681 -25.636,92.191 -68.034,92.191 z" /><path
     id="path1760"
     style="fill:#000000;stroke:none"
     d="m 22410.232,8362 h 42.891 v -144.942 c 0,-81.345 -33.031,-112.897 -90.219,-112.897 -27.115,0 -49.3,9.86 -65.076,31.552 v -25.636 h -42.891 V 8362 h 42.891 v -153.323 c 0,-48.807 25.143,-65.076 58.174,-65.076 31.059,0 54.23,18.241 54.23,66.062 z" /><path
     id="path1762"
     style="fill:#000000;stroke:none"
     d="m 22606.692,8367.916 c 54.723,0 89.726,-26.129 89.726,-71.485 0,-47.821 -35.989,-67.541 -81.838,-83.81 -28.101,-11.339 -53.244,-20.706 -53.244,-41.905 0,-17.748 16.269,-28.101 41.905,-28.101 27.115,0 44.863,12.818 55.709,24.157 l 29.58,-24.65 c -18.241,-21.692 -46.342,-37.961 -84.796,-37.961 -48.314,0 -84.796,25.143 -84.796,66.555 0,41.412 31.552,61.625 77.894,78.88 29.58,11.339 57.681,22.678 57.681,47.821 0,22.185 -20.213,32.045 -46.835,32.045 -27.115,0 -48.807,-16.269 -61.625,-30.073 l -30.566,26.129 c 19.72,25.143 54.23,42.398 91.205,42.398 z" /></g>
       </g>
      </g><g
   transform="translate(-1391)"
   class="com.sun.star.drawing.CustomShape"
   id="g401">
       <g
   id="id17">
        <path
   id="rect388"
   d="m 12043,11193 h 3996 v 1031 h -3996 z"
   style="fill:none;stroke:none" />
        <path
   d="m 14041,12223 h -1998 v -1030 h 3995 v 1030 z"
   id="path390"
   style="fill:#eeeeee;stroke:none" />
        <g
   id="text398"
   aria-label="Device Registry"><path
     id="path1656"
     style="fill:#000000;stroke:none"
     d="m 12347.412,11561.2 v 345.8 h 92.378 c 125.476,0 162.526,-93.366 162.526,-172.9 0,-85.462 -41.99,-172.9 -160.55,-172.9 z m 97.812,305.786 h -54.834 v -266.266 h 60.268 c 76.076,0 107.198,66.196 107.198,133.38 0,62.738 -26.676,132.886 -112.632,132.886 z" /><path
     id="path1658"
     style="fill:#000000;stroke:none"
     d="m 12774.05,11912.928 c 34.086,0 62.738,-13.832 81.51,-32.604 l -26.182,-29.146 c -15.808,15.808 -35.074,22.724 -54.34,22.724 -38.038,0 -65.702,-30.134 -69.16,-76.57 h 170.924 c 0.988,-9.88 1.482,-20.748 1.482,-28.652 0,-82.992 -47.424,-120.042 -104.234,-120.042 -67.184,0 -112.138,48.412 -112.138,131.898 0,77.064 42.978,132.392 112.138,132.392 z m -68.666,-152.152 c 2.47,-51.87 32.11,-74.1 68.666,-74.1 26.676,0 60.268,16.796 60.762,74.1 z" /><path
     id="path1660"
     style="fill:#000000;stroke:none"
     d="m 13009.743,11907 h 36.062 l 92.378,-252.434 h -42.979 l -58.786,168.454 c -2.964,8.892 -5.433,15.808 -7.904,24.7 -2.469,-8.892 -4.939,-15.808 -7.903,-24.7 l -59.775,-168.454 h -43.472 z" /><path
     id="path1662"
     style="fill:#000000;stroke:none"
     d="m 13216.59,11608.624 c 15.314,0 27.17,-11.856 27.17,-26.676 0,-15.314 -11.856,-27.664 -27.17,-27.664 -14.82,0 -26.676,12.35 -26.676,27.664 0,14.82 11.856,26.676 26.676,26.676 z m -21.242,298.376 h 42.978 v -252.434 h -42.978 z" /><path
     id="path1664"
     style="fill:#000000;stroke:none"
     d="m 13410.191,11912.928 c 46.436,0 80.028,-23.218 92.378,-64.714 l -40.014,-13.338 c -7.41,23.712 -26.182,37.544 -51.376,37.544 -40.508,0 -61.75,-34.086 -61.75,-91.39 0,-56.81 20.254,-92.378 63.232,-92.378 24.7,0 40.014,14.326 47.424,33.592 l 40.508,-14.82 c -14.326,-39.52 -46.436,-58.786 -88.426,-58.786 -66.196,0 -106.704,49.4 -106.704,132.392 0,83.486 40.508,131.898 104.728,131.898 z" /><path
     id="path1666"
     style="fill:#000000;stroke:none"
     d="m 13664.601,11912.928 c 34.086,0 62.738,-13.832 81.51,-32.604 l -26.182,-29.146 c -15.808,15.808 -35.074,22.724 -54.34,22.724 -38.038,0 -65.702,-30.134 -69.16,-76.57 h 170.924 c 0.988,-9.88 1.482,-20.748 1.482,-28.652 0,-82.992 -47.424,-120.042 -104.234,-120.042 -67.184,0 -112.138,48.412 -112.138,131.898 0,77.064 42.978,132.392 112.138,132.392 z m -68.666,-152.152 c 2.47,-51.87 32.11,-74.1 68.666,-74.1 26.676,0 60.268,16.796 60.762,74.1 z" /><path
     id="path1668"
     style="fill:#000000;stroke:none"
     d="m 13955.807,11907 h 42.978 v -148.2 h 76.57 l 71.136,148.2 h 48.412 l -74.1,-151.164 c 57.798,-11.856 80.522,-55.328 80.522,-96.33 0,-48.906 -26.182,-98.306 -109.174,-98.306 h -136.344 z m 42.978,-188.214 v -117.572 h 94.354 c 50.882,0 64.714,33.592 64.714,59.28 0,28.652 -16.302,58.292 -64.714,58.292 z" /><path
     id="path1670"
     style="fill:#000000;stroke:none"
     d="m 14362.183,11912.928 c 34.086,0 62.738,-13.832 81.51,-32.604 l -26.182,-29.146 c -15.808,15.808 -35.074,22.724 -54.34,22.724 -38.038,0 -65.702,-30.134 -69.16,-76.57 h 170.924 c 0.988,-9.88 1.482,-20.748 1.482,-28.652 0,-82.992 -47.424,-120.042 -104.234,-120.042 -67.184,0 -112.138,48.412 -112.138,131.898 0,77.064 42.978,132.392 112.138,132.392 z m -68.666,-152.152 c 2.47,-51.87 32.11,-74.1 68.666,-74.1 26.676,0 60.268,16.796 60.762,74.1 z" /><path
     id="path1672"
     style="fill:#000000;stroke:none"
     d="m 14607.755,12009.258 c 70.148,-3.952 119.054,-30.628 119.054,-112.632 v -242.06 h -42.978 v 20.748 c -9.88,-10.868 -29.64,-26.676 -63.726,-26.676 -61.75,0 -104.728,48.906 -104.728,131.898 0,87.932 47.424,132.392 103.246,132.392 30.628,0 50.882,-10.868 65.208,-30.628 v 30.628 c 0,33.098 -18.772,58.292 -96.824,62.738 z m 19.76,-136.344 c -40.508,0 -68.666,-34.58 -68.666,-92.378 0,-59.28 23.712,-92.378 68.666,-92.378 19.266,0 43.966,12.844 56.316,33.592 v 115.596 c -12.844,22.23 -35.568,35.568 -56.316,35.568 z" /><path
     id="path1674"
     style="fill:#000000;stroke:none"
     d="m 14829.808,11608.624 c 15.314,0 27.17,-11.856 27.17,-26.676 0,-15.314 -11.856,-27.664 -27.17,-27.664 -14.82,0 -26.676,12.35 -26.676,27.664 0,14.82 11.856,26.676 26.676,26.676 z m -21.242,298.376 h 42.978 v -252.434 h -42.978 z" /><path
     id="path1676"
     style="fill:#000000;stroke:none"
     d="m 15008.096,11912.928 c 54.834,0 89.908,-26.182 89.908,-71.63 0,-47.918 -36.062,-67.678 -82.004,-83.98 -28.158,-11.362 -53.352,-20.748 -53.352,-41.99 0,-17.784 16.302,-28.158 41.99,-28.158 27.17,0 44.954,12.844 55.822,24.206 l 29.64,-24.7 c -18.278,-21.736 -46.436,-38.038 -84.968,-38.038 -48.412,0 -84.968,25.194 -84.968,66.69 0,41.496 31.616,61.75 78.052,79.04 29.64,11.362 57.798,22.724 57.798,47.918 0,22.23 -20.254,32.11 -46.93,32.11 -27.17,0 -48.906,-16.302 -61.75,-30.134 l -30.628,26.182 c 19.76,25.194 54.34,42.484 91.39,42.484 z" /><path
     id="path1678"
     style="fill:#000000;stroke:none"
     d="m 15233.237,11912.928 c 19.759,0 35.073,-4.446 48.411,-11.362 l 4.94,-41.99 c -10.868,6.916 -23.217,13.338 -37.543,13.338 -22.23,0 -26.183,-15.314 -26.183,-34.58 v -146.224 h 62.244 v -37.544 h -62.244 v -104.234 l -42.977,20.748 v 83.486 h -41.003 v 37.544 h 41.003 v 160.55 c 0,35.568 15.314,60.268 53.352,60.268 z" /><path
     id="path1680"
     style="fill:#000000;stroke:none"
     d="m 15349.35,11907 h 42.978 v -142.272 c 0,-57.304 32.11,-73.606 56.316,-73.606 17.29,0 28.158,5.434 36.062,10.868 l 6.422,-40.508 c -8.892,-7.41 -22.724,-12.844 -39.026,-12.844 -28.158,0 -48.412,13.832 -59.774,39.026 v -33.098 h -42.978 z" /><path
     id="path1682"
     style="fill:#000000;stroke:none"
     d="m 15571.488,12002.836 h 43.472 l 130.91,-348.27 h -43.966 l -63.726,171.912 c -3.458,8.892 -5.434,15.808 -7.904,24.206 -2.47,-8.398 -4.446,-15.314 -7.904,-24.206 l -62.738,-171.912 h -42.978 l 93.366,246.012 z" /></g>
       </g>
      </g><g
   transform="translate(-1391)"
   class="com.sun.star.drawing.CustomShape"
   id="g414">
       <g
   id="id18">
        <path
   id="rect403"
   d="m 14960,6122 h 3373 v 1290 h -3373 z"
   style="fill:none;stroke:none" />
        <g
   id="text411"
   aria-label="Telemetry"><path
     id="path1704"
     style="fill:#000000;stroke:none"
     d="m 15903.78,6683.42 h 98.8 v -64.22 h -264.29 v 64.22 h 98.8 V 6965 h 66.69 z" /><path
     id="path1706"
     style="fill:#000000;stroke:none"
     d="m 16120.414,6970.928 c 41.99,0 72.618,-16.796 93.86,-42.484 l -39.52,-40.014 c -14.326,18.278 -31.122,26.182 -54.34,26.182 -27.664,0 -52.364,-18.278 -54.834,-50.882 h 164.502 c 1.976,-13.832 1.976,-28.158 1.976,-38.038 0,-81.016 -49.4,-119.054 -111.644,-119.054 -72.124,0 -118.066,50.388 -118.066,131.898 0,82.992 44.954,132.392 118.066,132.392 z m -54.34,-161.538 c 3.952,-31.616 24.206,-46.436 54.34,-46.436 25.688,0 44.954,16.796 48.906,46.436 z" /><path
     id="path1708"
     style="fill:#000000;stroke:none"
     d="m 16294.079,6965 h 64.22 v -356.668 l -64.22,30.134 z" /><path
     id="path1710"
     style="fill:#000000;stroke:none"
     d="m 16540.121,6970.928 c 41.99,0 72.618,-16.796 93.86,-42.484 l -39.52,-40.014 c -14.326,18.278 -31.122,26.182 -54.34,26.182 -27.664,0 -52.364,-18.278 -54.834,-50.882 h 164.502 c 1.976,-13.832 1.976,-28.158 1.976,-38.038 0,-81.016 -49.4,-119.054 -111.644,-119.054 -72.124,0 -118.066,50.388 -118.066,131.898 0,82.992 44.954,132.392 118.066,132.392 z m -54.34,-161.538 c 3.952,-31.616 24.206,-46.436 54.34,-46.436 25.688,0 44.954,16.796 48.906,46.436 z" /><path
     id="path1712"
     style="fill:#000000;stroke:none"
     d="m 17007.716,6965 h 64.22 v -158.574 c 0,-75.582 -40.508,-99.788 -94.354,-99.788 -31.616,0 -59.774,10.374 -77.558,35.568 -11.856,-23.218 -32.604,-35.568 -64.714,-35.568 -27.17,0 -45.942,11.362 -59.774,29.146 v -23.218 h -64.22 V 6965 h 64.22 v -138.32 c 0,-41.002 14.326,-58.292 43.966,-58.292 28.652,0 40.014,17.29 40.014,58.786 V 6965 h 64.22 v -138.32 c 0,-41.002 13.832,-58.292 43.966,-58.292 28.652,0 40.014,17.29 40.014,58.786 z" /><path
     id="path1714"
     style="fill:#000000;stroke:none"
     d="m 17249.282,6970.928 c 41.99,0 72.618,-16.796 93.86,-42.484 l -39.52,-40.014 c -14.326,18.278 -31.122,26.182 -54.34,26.182 -27.664,0 -52.364,-18.278 -54.834,-50.882 h 164.502 c 1.976,-13.832 1.976,-28.158 1.976,-38.038 0,-81.016 -49.4,-119.054 -111.644,-119.054 -72.124,0 -118.066,50.388 -118.066,131.898 0,82.992 44.954,132.392 118.066,132.392 z m -54.34,-161.538 c 3.952,-31.616 24.206,-46.436 54.34,-46.436 25.688,0 44.954,16.796 48.906,46.436 z" /><path
     id="path1716"
     style="fill:#000000;stroke:none"
     d="m 17492.669,6970.928 c 21.242,0 39.52,-3.952 54.834,-11.362 l 7.41,-55.822 c -14.326,7.41 -28.158,10.868 -41.496,10.868 -11.362,0 -17.784,-7.41 -17.784,-19.76 v -125.97 h 56.316 v -56.316 h -56.316 v -104.234 l -64.22,30.628 v 73.606 h -36.062 v 56.316 h 36.062 v 135.356 c 0,41.99 17.784,66.69 61.256,66.69 z" /><path
     id="path1718"
     style="fill:#000000;stroke:none"
     d="m 17611.515,6965 h 64.22 v -140.79 c 0,-43.472 21.242,-54.34 43.472,-54.34 19.76,0 34.086,6.422 45.942,14.82 l 8.892,-58.786 c -14.326,-11.856 -30.134,-19.266 -51.376,-19.266 -25.194,0 -39.52,12.35 -46.93,28.158 v -22.23 h -64.22 z" /><path
     id="path1720"
     style="fill:#000000;stroke:none"
     d="m 17853.467,7060.836 h 66.69 l 133.874,-348.27 h -65.702 l -55.328,145.73 c -2.47,7.41 -5.434,15.314 -7.41,23.218 -1.976,-7.904 -4.446,-15.808 -7.41,-23.218 l -55.328,-145.73 h -65.702 l 94.848,248.976 z" /></g>
       </g>
      </g><g
   transform="translate(-1391)"
   class="com.sun.star.drawing.CustomShape"
   id="g427">
       <g
   id="id19">
        <path
   id="rect416"
   d="m 14749,8238 h 3613 v 1290 h -3613 z"
   style="fill:none;stroke:none" />
        <g
   id="text424"
   aria-label="Commands"><path
     id="path1686"
     style="fill:#000000;stroke:none"
     d="m 16159.434,9058.076 c 49.491,0 78.678,-27.072 91.791,-54.144 l -20.304,-8.037 c -12.267,22.419 -33.84,41.031 -71.487,41.031 -67.68,0 -94.752,-64.296 -94.752,-131.976 0,-65.142 27.495,-132.399 94.752,-132.399 38.07,0 55.413,18.612 67.68,38.493 l 19.881,-11.421 c -14.382,-24.111 -35.955,-47.799 -87.561,-47.799 -81.639,0 -118.44,73.179 -118.44,153.126 0,77.409 33.417,153.126 118.44,153.126 z" /><path
     id="path1688"
     style="fill:#000000;stroke:none"
     d="m 16394.867,9058.076 c 53.298,0 89.253,-42.3 89.253,-113.364 0,-71.91 -35.955,-112.941 -89.253,-112.941 -53.298,0 -88.83,42.3 -88.83,113.364 0,71.91 35.532,112.941 88.83,112.941 z m 0,-21.15 c -42.3,0 -65.142,-34.263 -65.142,-91.791 0,-60.066 22.842,-92.637 65.142,-92.637 42.723,0 65.565,34.686 65.565,92.214 0,57.951 -23.688,92.214 -65.565,92.214 z" /><path
     id="path1690"
     style="fill:#000000;stroke:none"
     d="m 16804.297,9053 h 22.419 v -146.358 c 0,-46.107 -29.187,-74.871 -71.064,-74.871 -27.918,0 -52.029,16.497 -63.45,42.723 -9.729,-28.764 -32.994,-42.723 -58.797,-42.723 -24.111,0 -46.107,10.998 -59.643,33.417 v -28.341 h -22.419 V 9053 h 22.419 v -134.514 c 0,-38.07 17.766,-66.411 54.144,-66.411 43.146,0 49.914,37.647 49.914,66.834 V 9053 h 22.419 v -134.091 c 0,-35.955 19.035,-66.834 53.721,-66.834 43.569,0 50.337,37.647 50.337,66.834 z" /><path
     id="path1692"
     style="fill:#000000;stroke:none"
     d="m 17159.551,9053 h 22.419 v -146.358 c 0,-46.107 -29.187,-74.871 -71.064,-74.871 -27.918,0 -52.029,16.497 -63.45,42.723 -9.729,-28.764 -32.994,-42.723 -58.797,-42.723 -24.111,0 -46.107,10.998 -59.643,33.417 v -28.341 h -22.419 V 9053 h 22.419 v -134.514 c 0,-38.07 17.766,-66.411 54.144,-66.411 43.146,0 49.914,37.647 49.914,66.834 V 9053 h 22.419 v -134.091 c 0,-35.955 19.035,-66.834 53.721,-66.834 43.569,0 50.337,37.647 50.337,66.834 z" /><path
     id="path1694"
     style="fill:#000000;stroke:none"
     d="m 17386.213,9053 h 21.573 v -148.896 c 0,-59.22 -38.916,-72.333 -69.372,-72.333 -29.61,0 -56.682,12.267 -73.602,22.419 l 6.768,19.458 c 16.497,-10.575 41.877,-21.996 64.719,-21.996 25.803,0 49.914,10.152 49.914,57.528 v 24.957 c -20.304,-11.844 -40.185,-17.766 -60.912,-17.766 -40.608,0 -76.14,21.573 -76.14,69.795 0,46.953 28.341,71.91 71.064,71.91 24.957,0 49.068,-13.113 65.988,-32.571 z m -64.296,-14.805 c -31.725,0 -50.76,-20.727 -50.76,-52.029 0,-34.263 26.226,-49.914 55.836,-49.914 21.573,0 43.992,9.306 59.22,19.458 v 44.415 c -13.959,18.189 -35.109,38.07 -64.296,38.07 z" /><path
     id="path1696"
     style="fill:#000000;stroke:none"
     d="m 17614.032,9053 h 22.419 v -126.054 c 0,-65.988 -24.534,-95.175 -73.602,-95.175 -22.842,0 -46.953,10.575 -59.643,36.378 v -31.302 h -22.419 V 9053 h 22.419 v -129.438 c 0,-53.721 24.957,-71.487 57.951,-71.487 30.879,0 52.875,18.189 52.875,67.257 z" /><path
     id="path1698"
     style="fill:#000000;stroke:none"
     d="m 17786.887,9058.076 c 25.803,0 46.107,-10.998 61.335,-30.033 V 9053 h 22.419 v -305.406 l -22.419,10.998 v 101.52 c -12.267,-13.959 -30.456,-28.341 -59.643,-28.341 -54.567,0 -87.138,41.877 -87.138,112.941 0,68.949 32.571,113.364 85.446,113.364 z m 3.384,-21.15 c -40.185,0 -65.142,-41.031 -65.142,-92.214 0,-58.797 23.265,-92.214 65.142,-92.214 29.187,0 48.645,21.996 57.951,37.647 v 107.865 c -12.267,22.842 -34.686,38.916 -57.951,38.916 z" /><path
     id="path1700"
     style="fill:#000000;stroke:none"
     d="m 18010.905,9058.076 c 43.569,0 68.949,-23.265 68.949,-57.528 0,-42.3 -32.571,-56.259 -67.257,-69.795 -26.649,-10.998 -51.183,-20.304 -51.183,-45.261 0,-20.304 16.92,-33.417 44.415,-33.417 23.265,0 39.762,11.421 51.183,22.419 l 15.651,-13.113 c -16.497,-18.189 -39.762,-29.61 -66.411,-29.61 -40.185,0 -66.411,22.419 -66.411,54.144 0,34.263 26.649,49.491 61.758,63.027 28.341,10.998 56.259,24.111 56.259,52.452 0,24.111 -19.035,36.378 -45.684,36.378 -22.842,0 -43.146,-13.959 -56.259,-29.187 l -16.074,14.382 c 16.92,19.458 41.877,35.109 71.064,35.109 z" /></g>
       </g>
      </g><g
   transform="translate(-1391)"
   class="com.sun.star.drawing.CustomShape"
   id="g434">
       <g
   id="id20">
        <rect
   class="BoundingBox"
   x="4415"
   y="5043"
   width="870"
   height="879"
   id="rect429"
   style="fill:none;stroke:none" />
        <path
   d="m 4850,5921 h -435 v -878 h 869 v 878 z"
   id="path431"
   style="fill:#999999;stroke:none" />
       </g>
      </g><g
   transform="translate(-1391)"
   class="com.sun.star.drawing.CustomShape"
   id="g441">
       <g
   id="id21">
        <rect
   class="BoundingBox"
   x="4324"
   y="6334"
   width="870"
   height="879"
   id="rect436"
   style="fill:none;stroke:none" />
        <path
   d="m 4759,7212 h -435 v -878 h 869 v 878 z"
   id="path438"
   style="fill:#999999;stroke:none" />
       </g>
      </g><g
   transform="translate(-1391)"
   class="com.sun.star.drawing.CustomShape"
   id="g448">
       <g
   id="id22">
        <rect
   class="BoundingBox"
   x="3225"
   y="6037"
   width="870"
   height="879"
   id="rect443"
   style="fill:none;stroke:none" />
        <path
   d="m 3660,6915 h -435 v -878 h 869 v 878 z"
   id="path445"
   style="fill:#999999;stroke:none" />
       </g>
      </g><g
   transform="translate(-1391)"
   class="com.sun.star.drawing.CustomShape"
   id="g455">
       <g
   id="id23">
        <rect
   class="BoundingBox"
   x="3013"
   y="7193"
   width="870"
   height="879"
   id="rect450"
   style="fill:none;stroke:none" />
        <path
   d="m 3448,8071 h -435 v -878 h 869 v 878 z"
   id="path452"
   style="fill:#999999;stroke:none" />
       </g>
      </g><g
   transform="translate(-1391)"
   class="com.sun.star.drawing.CustomShape"
   id="g462">
       <g
   id="id24">
        <rect
   class="BoundingBox"
   x="4204"
   y="7405"
   width="870"
   height="879"
   id="rect457"
   style="fill:none;stroke:none" />
        <path
   d="m 4639,8283 h -435 v -878 h 869 v 878 z"
   id="path459"
   style="fill:#999999;stroke:none" />
       </g>
      </g><g
   transform="translate(-1391)"
   class="com.sun.star.drawing.CustomShape"
   id="g469">
       <g
   id="id25">
        <rect
   class="BoundingBox"
   x="4535"
   y="8484"
   width="870"
   height="879"
   id="rect464"
   style="fill:none;stroke:none" />
        <path
   d="m 4970,9362 h -435 v -878 h 869 v 878 z"
   id="path466"
   style="fill:#999999;stroke:none" />
       </g>
      </g><g
   transform="translate(-1391)"
   class="com.sun.star.drawing.CustomShape"
   id="g476">
       <g
   id="id26">
        <rect
   class="BoundingBox"
   x="3322"
   y="8696"
   width="870"
   height="879"
   id="rect471"
   style="fill:none;stroke:none" />
        <path
   d="m 3757,9574 h -435 v -878 h 869 v 878 z"
   id="path473"
   style="fill:#999999;stroke:none" />
       </g>
      </g><g
   transform="translate(-1391)"
   class="com.sun.star.drawing.CustomShape"
   id="g483">
       <g
   id="id27">
        <rect
   class="BoundingBox"
   x="3225"
   y="10129"
   width="870"
   height="879"
   id="rect478"
   style="fill:none;stroke:none" />
        <path
   d="m 3660,11007 h -435 v -878 h 869 v 878 z"
   id="path480"
   style="fill:#999999;stroke:none" />
       </g>
      </g><g
   transform="translate(-1391)"
   class="com.sun.star.drawing.CustomShape"
   id="g490">
       <g
   id="id28">
        <rect
   class="BoundingBox"
   x="4415"
   y="9918"
   width="870"
   height="879"
   id="rect485"
   style="fill:none;stroke:none" />
        <path
   d="m 4850,10796 h -435 v -878 h 869 v 878 z"
   id="path487"
   style="fill:#999999;stroke:none" />
       </g>
      </g><g
   transform="translate(-1391)"
   class="com.sun.star.drawing.CustomShape"
   id="g497">
       <g
   id="id29">
        <rect
   class="BoundingBox"
   x="4535"
   y="11420"
   width="870"
   height="879"
   id="rect492"
   style="fill:none;stroke:none" />
        <path
   d="m 4970,12298 h -435 v -878 h 869 v 878 z"
   id="path494"
   style="fill:#999999;stroke:none" />
       </g>
      </g><g
   transform="translate(-1391)"
   class="com.sun.star.drawing.CustomShape"
   id="g504">
       <g
   id="id30">
        <rect
   class="BoundingBox"
   x="3110"
   y="11209"
   width="870"
   height="879"
   id="rect499"
   style="fill:none;stroke:none" />
        <path
   d="m 3545,12087 h -435 v -878 h 869 v 878 z"
   id="path501"
   style="fill:#999999;stroke:none" />
       </g>
      </g><g
   transform="translate(-1391)"
   class="com.sun.star.drawing.CustomShape"
   id="g511">
       <g
   id="id31">
        <rect
   class="BoundingBox"
   x="2011"
   y="5050"
   width="870"
   height="879"
   id="rect506"
   style="fill:none;stroke:none" />
        <path
   d="m 2446,5928 h -435 v -878 h 869 v 878 z"
   id="path508"
   style="fill:#999999;stroke:none" />
       </g>
      </g><g
   transform="translate(-1391)"
   class="com.sun.star.drawing.CustomShape"
   id="g518">
       <g
   id="id32">
        <rect
   class="BoundingBox"
   x="1897"
   y="6231"
   width="870"
   height="879"
   id="rect513"
   style="fill:none;stroke:none" />
        <path
   d="m 2332,7109 h -435 v -878 h 869 v 878 z"
   id="path515"
   style="fill:#999999;stroke:none" />
       </g>
      </g><g
   transform="translate(-1391)"
   class="com.sun.star.drawing.CustomShape"
   id="g525">
       <g
   id="id33">
        <rect
   class="BoundingBox"
   x="2011"
   y="7411"
   width="870"
   height="879"
   id="rect520"
   style="fill:none;stroke:none" />
        <path
   d="m 2446,8289 h -435 v -878 h 869 v 878 z"
   id="path522"
   style="fill:#999999;stroke:none" />
       </g>
      </g><g
   transform="translate(-1391)"
   class="com.sun.star.drawing.CustomShape"
   id="g532">
       <g
   id="id34">
        <rect
   class="BoundingBox"
   x="1897"
   y="8491"
   width="870"
   height="879"
   id="rect527"
   style="fill:none;stroke:none" />
        <path
   d="m 2332,9369 h -435 v -878 h 869 v 878 z"
   id="path529"
   style="fill:#999999;stroke:none" />
       </g>
      </g><g
   transform="translate(-1391)"
   class="com.sun.star.drawing.CustomShape"
   id="g539">
       <g
   id="id35">
        <rect
   class="BoundingBox"
   x="2011"
   y="9924"
   width="870"
   height="879"
   id="rect534"
   style="fill:none;stroke:none" />
        <path
   d="m 2446,10802 h -435 v -878 h 869 v 878 z"
   id="path536"
   style="fill:#999999;stroke:none" />
       </g>
      </g><g
   transform="translate(-1391)"
   class="com.sun.star.drawing.CustomShape"
   id="g546">
       <g
   id="id36">
        <rect
   class="BoundingBox"
   x="1897"
   y="11427"
   width="870"
   height="879"
   id="rect541"
   style="fill:none;stroke:none" />
        <path
   d="m 2332,12305 h -435 v -878 h 869 v 878 z"
   id="path543"
   style="fill:#999999;stroke:none" />
       </g>
      </g>
</svg>