<?xml version="1.0" encoding="UTF-8"?>
<!DOCTYPE svg PUBLIC "-//W3C//DTD SVG 1.1//EN" "http://www.w3.org/Graphics/SVG/1.1/DTD/svg11.dtd">
<svg width="308mm" height="173mm" viewBox="0 0 30800 17300" version="1.1" xmlns="http://www.w3.org/2000/svg" stroke-width="28.222" stroke-linejoin="round" xml:space="preserve">
 <path fill="rgb(255,255,255)" stroke="none" d="M 15370,17299 L -8,17299 -8,0 30747,0 30747,17299 15370,17299 Z"/>
 <path fill="none" stroke="rgb(179,179,179)" stroke-linejoin="round" d="M 13249,15494 L 1348,15494 1348,346 25149,346 25149,15494 13249,15494 Z"/>
 <path fill="none" stroke="rgb(179,179,179)" stroke-linejoin="round" d="M 25149,15493 L 1348,15493"/>
 <path fill="none" stroke="rgb(179,179,179)" stroke-linejoin="round" d="M 25149,12968 L 1348,12968"/>
 <path fill="none" stroke="rgb(179,179,179)" stroke-linejoin="round" d="M 25149,10443 L 1348,10443"/>
 <path fill="none" stroke="rgb(179,179,179)" stroke-linejoin="round" d="M 25149,7919 L 1348,7919"/>
 <path fill="none" stroke="rgb(179,179,179)" stroke-linejoin="round" d="M 25149,5394 L 1348,5394"/>
 <path fill="none" stroke="rgb(179,179,179)" stroke-linejoin="round" d="M 25149,2869 L 1348,2869"/>
 <path fill="none" stroke="rgb(179,179,179)" stroke-linejoin="round" d="M 25149,345 L 1348,345"/>
 <path fill="none" stroke="rgb(179,179,179)" stroke-linejoin="round" d="M 1348,15643 L 1348,15493"/>
 <path fill="none" stroke="rgb(179,179,179)" stroke-linejoin="round" d="M 1348,15643 L 1348,15493"/>
 <path fill="none" stroke="rgb(179,179,179)" stroke-linejoin="round" d="M 1943,15643 L 1943,15493"/>
 <path fill="none" stroke="rgb(179,179,179)" stroke-linejoin="round" d="M 1943,15643 L 1943,15493"/>
 <path fill="none" stroke="rgb(179,179,179)" stroke-linejoin="round" d="M 2538,15643 L 2538,15493"/>
 <path fill="none" stroke="rgb(179,179,179)" stroke-linejoin="round" d="M 2538,15643 L 2538,15493"/>
 <path fill="none" stroke="rgb(179,179,179)" stroke-linejoin="round" d="M 3133,15643 L 3133,15493"/>
 <path fill="none" stroke="rgb(179,179,179)" stroke-linejoin="round" d="M 3133,15643 L 3133,15493"/>
 <path fill="none" stroke="rgb(179,179,179)" stroke-linejoin="round" d="M 3728,15643 L 3728,15493"/>
 <path fill="none" stroke="rgb(179,179,179)" stroke-linejoin="round" d="M 3728,15643 L 3728,15493"/>
 <path fill="none" stroke="rgb(179,179,179)" stroke-linejoin="round" d="M 4323,15643 L 4323,15493"/>
 <path fill="none" stroke="rgb(179,179,179)" stroke-linejoin="round" d="M 4323,15643 L 4323,15493"/>
 <path fill="none" stroke="rgb(179,179,179)" stroke-linejoin="round" d="M 4918,15643 L 4918,15493"/>
 <path fill="none" stroke="rgb(179,179,179)" stroke-linejoin="round" d="M 4918,15643 L 4918,15493"/>
 <path fill="none" stroke="rgb(179,179,179)" stroke-linejoin="round" d="M 5513,15643 L 5513,15493"/>
 <path fill="none" stroke="rgb(179,179,179)" stroke-linejoin="round" d="M 5513,15643 L 5513,15493"/>
 <path fill="none" stroke="rgb(179,179,179)" stroke-linejoin="round" d="M 6108,15643 L 6108,15493"/>
 <path fill="none" stroke="rgb(179,179,179)" stroke-linejoin="round" d="M 6108,15643 L 6108,15493"/>
 <path fill="none" stroke="rgb(179,179,179)" stroke-linejoin="round" d="M 6703,15643 L 6703,15493"/>
 <path fill="none" stroke="rgb(179,179,179)" stroke-linejoin="round" d="M 6703,15643 L 6703,15493"/>
 <path fill="none" stroke="rgb(179,179,179)" stroke-linejoin="round" d="M 7298,15643 L 7298,15493"/>
 <path fill="none" stroke="rgb(179,179,179)" stroke-linejoin="round" d="M 7298,15643 L 7298,15493"/>
 <path fill="none" stroke="rgb(179,179,179)" stroke-linejoin="round" d="M 7893,15643 L 7893,15493"/>
 <path fill="none" stroke="rgb(179,179,179)" stroke-linejoin="round" d="M 7893,15643 L 7893,15493"/>
 <path fill="none" stroke="rgb(179,179,179)" stroke-linejoin="round" d="M 8488,15643 L 8488,15493"/>
 <path fill="none" stroke="rgb(179,179,179)" stroke-linejoin="round" d="M 8488,15643 L 8488,15493"/>
 <path fill="none" stroke="rgb(179,179,179)" stroke-linejoin="round" d="M 9083,15643 L 9083,15493"/>
 <path fill="none" stroke="rgb(179,179,179)" stroke-linejoin="round" d="M 9083,15643 L 9083,15493"/>
 <path fill="none" stroke="rgb(179,179,179)" stroke-linejoin="round" d="M 9678,15643 L 9678,15493"/>
 <path fill="none" stroke="rgb(179,179,179)" stroke-linejoin="round" d="M 9678,15643 L 9678,15493"/>
 <path fill="none" stroke="rgb(179,179,179)" stroke-linejoin="round" d="M 10273,15643 L 10273,15493"/>
 <path fill="none" stroke="rgb(179,179,179)" stroke-linejoin="round" d="M 10273,15643 L 10273,15493"/>
 <path fill="none" stroke="rgb(179,179,179)" stroke-linejoin="round" d="M 10868,15643 L 10868,15493"/>
 <path fill="none" stroke="rgb(179,179,179)" stroke-linejoin="round" d="M 10868,15643 L 10868,15493"/>
 <path fill="none" stroke="rgb(179,179,179)" stroke-linejoin="round" d="M 11463,15643 L 11463,15493"/>
 <path fill="none" stroke="rgb(179,179,179)" stroke-linejoin="round" d="M 11463,15643 L 11463,15493"/>
 <path fill="none" stroke="rgb(179,179,179)" stroke-linejoin="round" d="M 12058,15643 L 12058,15493"/>
 <path fill="none" stroke="rgb(179,179,179)" stroke-linejoin="round" d="M 12058,15643 L 12058,15493"/>
 <path fill="none" stroke="rgb(179,179,179)" stroke-linejoin="round" d="M 12653,15643 L 12653,15493"/>
 <path fill="none" stroke="rgb(179,179,179)" stroke-linejoin="round" d="M 12653,15643 L 12653,15493"/>
 <path fill="none" stroke="rgb(179,179,179)" stroke-linejoin="round" d="M 13249,15643 L 13249,15493"/>
 <path fill="none" stroke="rgb(179,179,179)" stroke-linejoin="round" d="M 13249,15643 L 13249,15493"/>
 <path fill="none" stroke="rgb(179,179,179)" stroke-linejoin="round" d="M 13844,15643 L 13844,15493"/>
 <path fill="none" stroke="rgb(179,179,179)" stroke-linejoin="round" d="M 13844,15643 L 13844,15493"/>
 <path fill="none" stroke="rgb(179,179,179)" stroke-linejoin="round" d="M 14439,15643 L 14439,15493"/>
 <path fill="none" stroke="rgb(179,179,179)" stroke-linejoin="round" d="M 14439,15643 L 14439,15493"/>
 <path fill="none" stroke="rgb(179,179,179)" stroke-linejoin="round" d="M 15034,15643 L 15034,15493"/>
 <path fill="none" stroke="rgb(179,179,179)" stroke-linejoin="round" d="M 15034,15643 L 15034,15493"/>
 <path fill="none" stroke="rgb(179,179,179)" stroke-linejoin="round" d="M 15628,15643 L 15628,15493"/>
 <path fill="none" stroke="rgb(179,179,179)" stroke-linejoin="round" d="M 15628,15643 L 15628,15493"/>
 <path fill="none" stroke="rgb(179,179,179)" stroke-linejoin="round" d="M 16223,15643 L 16223,15493"/>
 <path fill="none" stroke="rgb(179,179,179)" stroke-linejoin="round" d="M 16223,15643 L 16223,15493"/>
 <path fill="none" stroke="rgb(179,179,179)" stroke-linejoin="round" d="M 16818,15643 L 16818,15493"/>
 <path fill="none" stroke="rgb(179,179,179)" stroke-linejoin="round" d="M 16818,15643 L 16818,15493"/>
 <path fill="none" stroke="rgb(179,179,179)" stroke-linejoin="round" d="M 17413,15643 L 17413,15493"/>
 <path fill="none" stroke="rgb(179,179,179)" stroke-linejoin="round" d="M 17413,15643 L 17413,15493"/>
 <path fill="none" stroke="rgb(179,179,179)" stroke-linejoin="round" d="M 18008,15643 L 18008,15493"/>
 <path fill="none" stroke="rgb(179,179,179)" stroke-linejoin="round" d="M 18008,15643 L 18008,15493"/>
 <path fill="none" stroke="rgb(179,179,179)" stroke-linejoin="round" d="M 18603,15643 L 18603,15493"/>
 <path fill="none" stroke="rgb(179,179,179)" stroke-linejoin="round" d="M 18603,15643 L 18603,15493"/>
 <path fill="none" stroke="rgb(179,179,179)" stroke-linejoin="round" d="M 19198,15643 L 19198,15493"/>
 <path fill="none" stroke="rgb(179,179,179)" stroke-linejoin="round" d="M 19198,15643 L 19198,15493"/>
 <path fill="none" stroke="rgb(179,179,179)" stroke-linejoin="round" d="M 19793,15643 L 19793,15493"/>
 <path fill="none" stroke="rgb(179,179,179)" stroke-linejoin="round" d="M 19793,15643 L 19793,15493"/>
 <path fill="none" stroke="rgb(179,179,179)" stroke-linejoin="round" d="M 20388,15643 L 20388,15493"/>
 <path fill="none" stroke="rgb(179,179,179)" stroke-linejoin="round" d="M 20388,15643 L 20388,15493"/>
 <path fill="none" stroke="rgb(179,179,179)" stroke-linejoin="round" d="M 20983,15643 L 20983,15493"/>
 <path fill="none" stroke="rgb(179,179,179)" stroke-linejoin="round" d="M 20983,15643 L 20983,15493"/>
 <path fill="none" stroke="rgb(179,179,179)" stroke-linejoin="round" d="M 21578,15643 L 21578,15493"/>
 <path fill="none" stroke="rgb(179,179,179)" stroke-linejoin="round" d="M 21578,15643 L 21578,15493"/>
 <path fill="none" stroke="rgb(179,179,179)" stroke-linejoin="round" d="M 22173,15643 L 22173,15493"/>
 <path fill="none" stroke="rgb(179,179,179)" stroke-linejoin="round" d="M 22173,15643 L 22173,15493"/>
 <path fill="none" stroke="rgb(179,179,179)" stroke-linejoin="round" d="M 22768,15643 L 22768,15493"/>
 <path fill="none" stroke="rgb(179,179,179)" stroke-linejoin="round" d="M 22768,15643 L 22768,15493"/>
 <path fill="none" stroke="rgb(179,179,179)" stroke-linejoin="round" d="M 23363,15643 L 23363,15493"/>
 <path fill="none" stroke="rgb(179,179,179)" stroke-linejoin="round" d="M 23363,15643 L 23363,15493"/>
 <path fill="none" stroke="rgb(179,179,179)" stroke-linejoin="round" d="M 23958,15643 L 23958,15493"/>
 <path fill="none" stroke="rgb(179,179,179)" stroke-linejoin="round" d="M 23958,15643 L 23958,15493"/>
 <path fill="none" stroke="rgb(179,179,179)" stroke-linejoin="round" d="M 24553,15643 L 24553,15493"/>
 <path fill="none" stroke="rgb(179,179,179)" stroke-linejoin="round" d="M 24553,15643 L 24553,15493"/>
 <path fill="none" stroke="rgb(179,179,179)" stroke-linejoin="round" d="M 25149,15643 L 25149,15493"/>
 <path fill="none" stroke="rgb(179,179,179)" stroke-linejoin="round" d="M 25149,15643 L 25149,15493"/>
 <path fill="none" stroke="rgb(179,179,179)" stroke-linejoin="round" d="M 1348,15493 L 25149,15493"/>
 <path fill="none" stroke="rgb(179,179,179)" stroke-linejoin="round" d="M 1198,15493 L 1348,15493"/>
 <path fill="none" stroke="rgb(179,179,179)" stroke-linejoin="round" d="M 1198,15493 L 1348,15493"/>
 <path fill="none" stroke="rgb(179,179,179)" stroke-linejoin="round" d="M 1198,12968 L 1348,12968"/>
 <path fill="none" stroke="rgb(179,179,179)" stroke-linejoin="round" d="M 1198,12968 L 1348,12968"/>
 <path fill="none" stroke="rgb(179,179,179)" stroke-linejoin="round" d="M 1198,10443 L 1348,10443"/>
 <path fill="none" stroke="rgb(179,179,179)" stroke-linejoin="round" d="M 1198,10443 L 1348,10443"/>
 <path fill="none" stroke="rgb(179,179,179)" stroke-linejoin="round" d="M 1198,7919 L 1348,7919"/>
 <path fill="none" stroke="rgb(179,179,179)" stroke-linejoin="round" d="M 1198,7919 L 1348,7919"/>
 <path fill="none" stroke="rgb(179,179,179)" stroke-linejoin="round" d="M 1198,5394 L 1348,5394"/>
 <path fill="none" stroke="rgb(179,179,179)" stroke-linejoin="round" d="M 1198,5394 L 1348,5394"/>
 <path fill="none" stroke="rgb(179,179,179)" stroke-linejoin="round" d="M 1198,2869 L 1348,2869"/>
 <path fill="none" stroke="rgb(179,179,179)" stroke-linejoin="round" d="M 1198,2869 L 1348,2869"/>
 <path fill="none" stroke="rgb(179,179,179)" stroke-linejoin="round" d="M 1198,345 L 1348,345"/>
 <path fill="none" stroke="rgb(179,179,179)" stroke-linejoin="round" d="M 1198,345 L 1348,345"/>
 <path fill="none" stroke="rgb(179,179,179)" stroke-linejoin="round" d="M 1348,15493 L 1348,345"/>
 <path fill="none" stroke="rgb(179,179,179)" stroke-linejoin="round" d="M 25299,15493 L 25149,15493"/>
 <path fill="none" stroke="rgb(179,179,179)" stroke-linejoin="round" d="M 25299,15493 L 25149,15493"/>
 <path fill="none" stroke="rgb(179,179,179)" stroke-linejoin="round" d="M 25299,13328 L 25149,13328"/>
 <path fill="none" stroke="rgb(179,179,179)" stroke-linejoin="round" d="M 25299,13328 L 25149,13328"/>
 <path fill="none" stroke="rgb(179,179,179)" stroke-linejoin="round" d="M 25299,11164 L 25149,11164"/>
 <path fill="none" stroke="rgb(179,179,179)" stroke-linejoin="round" d="M 25299,11164 L 25149,11164"/>
 <path fill="none" stroke="rgb(179,179,179)" stroke-linejoin="round" d="M 25299,9000 L 25149,9000"/>
 <path fill="none" stroke="rgb(179,179,179)" stroke-linejoin="round" d="M 25299,9000 L 25149,9000"/>
 <path fill="none" stroke="rgb(179,179,179)" stroke-linejoin="round" d="M 25299,6837 L 25149,6837"/>
 <path fill="none" stroke="rgb(179,179,179)" stroke-linejoin="round" d="M 25299,6837 L 25149,6837"/>
 <path fill="none" stroke="rgb(179,179,179)" stroke-linejoin="round" d="M 25299,4673 L 25149,4673"/>
 <path fill="none" stroke="rgb(179,179,179)" stroke-linejoin="round" d="M 25299,4673 L 25149,4673"/>
 <path fill="none" stroke="rgb(179,179,179)" stroke-linejoin="round" d="M 25299,2509 L 25149,2509"/>
 <path fill="none" stroke="rgb(179,179,179)" stroke-linejoin="round" d="M 25299,2509 L 25149,2509"/>
 <path fill="none" stroke="rgb(179,179,179)" stroke-linejoin="round" d="M 25299,345 L 25149,345"/>
 <path fill="none" stroke="rgb(179,179,179)" stroke-linejoin="round" d="M 25299,345 L 25149,345"/>
 <path fill="none" stroke="rgb(179,179,179)" stroke-linejoin="round" d="M 25149,15493 L 25149,345"/>
 <path fill="none" stroke="rgb(255,211,32)" stroke-width="80" stroke-linejoin="round" d="M 1348,14988 L 1943,12210 2538,11958 3133,8171 3728,6152 4323,7162 4918,7667 5513,6152 6108,10695 6703,10190 7298,10695 7893,7162 8488,9685 9083,6657 9678,6404 10273,6404 10868,7162 11463,7162 12058,6152 12653,6152 13249,5899 13844,6152 14439,5899 15034,6909 15628,6657 16223,4132 16818,4132 17413,4384 18008,4384 18603,4637 19198,3122 19793,4637 20388,3879 20983,5647 21578,6909 22173,5647 22768,5647 23363,4637 23958,6909 24553,6657 25149,5142"/>
 <path fill="none" stroke="rgb(87,157,28)" stroke-width="80" stroke-linejoin="round" d="M 1348,15240 L 1943,14988 2538,14735 3133,14483 3728,14230 4323,13978 4918,13725 5513,13473 6108,13220 6703,12968 7298,12715 7893,12463 8488,12210 9083,11958 9678,11705 10273,11453 10868,11200 11463,10948 12058,10695 12653,10443 13249,10190 13844,9938 14439,9685 15034,9433 15628,9180 16223,8928 16818,8675 17413,8424 18008,8171 18603,7919 19198,7667 19793,7414 20388,7162 20983,6909 21578,6657 22173,6404 22768,6152 23363,5899 23958,5647 24553,5394 25149,5142"/>
 <path fill="none" stroke="rgb(126,0,33)" stroke-width="80" stroke-linejoin="round" d="M 1348,15240 L 1943,15240 2538,14988 3133,14988 3728,14735 4323,14735 4918,14735 5513,14483 6108,14483 6703,14483 7298,14483 7893,14483 8488,14230 9083,14230 9678,14230 10273,13978 10868,13725 11463,13725 12058,13473 12653,13473 13249,13473 13844,13473 14439,12968 15034,12968 15628,12968 16223,12968 16818,12968 17413,12968 18008,12715 18603,12715 19198,12463 19793,12463 20388,12210 20983,11958 21578,11958 22173,11958 22768,11958 23363,11958 23958,11453 24553,11453 25149,11453"/>
 <path fill="none" stroke="rgb(131,202,255)" stroke-width="80" stroke-linejoin="round" d="M 1348,11166 L 1943,7045 2538,9046 3133,6955 3728,8380 4323,6949 4918,5525 5513,6932 6108,5793 6703,4729 7298,3648 7893,2769 8488,4290 9083,3504 9678,2680 10273,4138 10868,5025 11463,4438 12058,5364 12653,4757 13249,4259 13844,3741 14439,5623 15034,5170 15628,4747 16223,4388 16818,4028 17413,3599 18008,4263 18603,3971 19198,4510 19793,4116 20388,4694 20983,5080 21578,4823 22173,4505 22768,4184 23363,3972 23958,5066 24553,4753 25149,4857"/>
 <text class="TextShape" transform="translate(832,16568) rotate(-44.9) translate(-832,-16568)"><tspan class="TextParagraph" font-family="Liberation Sans, sans-serif" font-size="353px" font-weight="400"><tspan class="TextPosition" x="832" y="16568"><tspan fill="rgb(0,0,0)" stroke="none">2.000</tspan></tspan></tspan></text>
 <text class="TextShape" transform="translate(1427,16568) rotate(-44.9) translate(-1427,-16568)"><tspan class="TextParagraph" font-family="Liberation Sans, sans-serif" font-size="353px" font-weight="400"><tspan class="TextPosition" x="1427" y="16568"><tspan fill="rgb(0,0,0)" stroke="none">4.000</tspan></tspan></tspan></text>
 <text class="TextShape" transform="translate(2022,16568) rotate(-44.9) translate(-2022,-16568)"><tspan class="TextParagraph" font-family="Liberation Sans, sans-serif" font-size="353px" font-weight="400"><tspan class="TextPosition" x="2022" y="16568"><tspan fill="rgb(0,0,0)" stroke="none">6.000</tspan></tspan></tspan></text>
 <text class="TextShape" transform="translate(2617,16568) rotate(-44.9) translate(-2617,-16568)"><tspan class="TextParagraph" font-family="Liberation Sans, sans-serif" font-size="353px" font-weight="400"><tspan class="TextPosition" x="2617" y="16568"><tspan fill="rgb(0,0,0)" stroke="none">8.000</tspan></tspan></tspan></text>
 <text class="TextShape" transform="translate(3081,16698) rotate(-44.9) translate(-3081,-16698)"><tspan class="TextParagraph" font-family="Liberation Sans, sans-serif" font-size="353px" font-weight="400"><tspan class="TextPosition" x="3081" y="16698"><tspan fill="rgb(0,0,0)" stroke="none">10.000</tspan></tspan></tspan></text>
 <text class="TextShape" transform="translate(3676,16698) rotate(-44.9) translate(-3676,-16698)"><tspan class="TextParagraph" font-family="Liberation Sans, sans-serif" font-size="353px" font-weight="400"><tspan class="TextPosition" x="3676" y="16698"><tspan fill="rgb(0,0,0)" stroke="none">12.000</tspan></tspan></tspan></text>
 <text class="TextShape" transform="translate(4271,16698) rotate(-44.9) translate(-4271,-16698)"><tspan class="TextParagraph" font-family="Liberation Sans, sans-serif" font-size="353px" font-weight="400"><tspan class="TextPosition" x="4271" y="16698"><tspan fill="rgb(0,0,0)" stroke="none">14.000</tspan></tspan></tspan></text>
 <text class="TextShape" transform="translate(4866,16698) rotate(-44.9) translate(-4866,-16698)"><tspan class="TextParagraph" font-family="Liberation Sans, sans-serif" font-size="353px" font-weight="400"><tspan class="TextPosition" x="4866" y="16698"><tspan fill="rgb(0,0,0)" stroke="none">16.000</tspan></tspan></tspan></text>
 <text class="TextShape" transform="translate(5461,16698) rotate(-44.9) translate(-5461,-16698)"><tspan class="TextParagraph" font-family="Liberation Sans, sans-serif" font-size="353px" font-weight="400"><tspan class="TextPosition" x="5461" y="16698"><tspan fill="rgb(0,0,0)" stroke="none">18.000</tspan></tspan></tspan></text>
 <text class="TextShape" transform="translate(6056,16698) rotate(-44.9) translate(-6056,-16698)"><tspan class="TextParagraph" font-family="Liberation Sans, sans-serif" font-size="353px" font-weight="400"><tspan class="TextPosition" x="6056" y="16698"><tspan fill="rgb(0,0,0)" stroke="none">20.000</tspan></tspan></tspan></text>
 <text class="TextShape" transform="translate(6651,16698) rotate(-44.9) translate(-6651,-16698)"><tspan class="TextParagraph" font-family="Liberation Sans, sans-serif" font-size="353px" font-weight="400"><tspan class="TextPosition" x="6651" y="16698"><tspan fill="rgb(0,0,0)" stroke="none">22.000</tspan></tspan></tspan></text>
 <text class="TextShape" transform="translate(7246,16698) rotate(-44.9) translate(-7246,-16698)"><tspan class="TextParagraph" font-family="Liberation Sans, sans-serif" font-size="353px" font-weight="400"><tspan class="TextPosition" x="7246" y="16698"><tspan fill="rgb(0,0,0)" stroke="none">24.000</tspan></tspan></tspan></text>
 <text class="TextShape" transform="translate(7841,16698) rotate(-44.9) translate(-7841,-16698)"><tspan class="TextParagraph" font-family="Liberation Sans, sans-serif" font-size="353px" font-weight="400"><tspan class="TextPosition" x="7841" y="16698"><tspan fill="rgb(0,0,0)" stroke="none">26.000</tspan></tspan></tspan></text>
 <text class="TextShape" transform="translate(8436,16698) rotate(-44.9) translate(-8436,-16698)"><tspan class="TextParagraph" font-family="Liberation Sans, sans-serif" font-size="353px" font-weight="400"><tspan class="TextPosition" x="8436" y="16698"><tspan fill="rgb(0,0,0)" stroke="none">28.000</tspan></tspan></tspan></text>
 <text class="TextShape" transform="translate(9031,16698) rotate(-44.9) translate(-9031,-16698)"><tspan class="TextParagraph" font-family="Liberation Sans, sans-serif" font-size="353px" font-weight="400"><tspan class="TextPosition" x="9031" y="16698"><tspan fill="rgb(0,0,0)" stroke="none">30.000</tspan></tspan></tspan></text>
 <text class="TextShape" transform="translate(9626,16698) rotate(-44.9) translate(-9626,-16698)"><tspan class="TextParagraph" font-family="Liberation Sans, sans-serif" font-size="353px" font-weight="400"><tspan class="TextPosition" x="9626" y="16698"><tspan fill="rgb(0,0,0)" stroke="none">32.000</tspan></tspan></tspan></text>
 <text class="TextShape" transform="translate(10221,16698) rotate(-44.9) translate(-10221,-16698)"><tspan class="TextParagraph" font-family="Liberation Sans, sans-serif" font-size="353px" font-weight="400"><tspan class="TextPosition" x="10221" y="16698"><tspan fill="rgb(0,0,0)" stroke="none">34.000</tspan></tspan></tspan></text>
 <text class="TextShape" transform="translate(10816,16698) rotate(-44.9) translate(-10816,-16698)"><tspan class="TextParagraph" font-family="Liberation Sans, sans-serif" font-size="353px" font-weight="400"><tspan class="TextPosition" x="10816" y="16698"><tspan fill="rgb(0,0,0)" stroke="none">36.000</tspan></tspan></tspan></text>
 <text class="TextShape" transform="translate(11411,16698) rotate(-44.9) translate(-11411,-16698)"><tspan class="TextParagraph" font-family="Liberation Sans, sans-serif" font-size="353px" font-weight="400"><tspan class="TextPosition" x="11411" y="16698"><tspan fill="rgb(0,0,0)" stroke="none">38.000</tspan></tspan></tspan></text>
 <text class="TextShape" transform="translate(12006,16698) rotate(-44.9) translate(-12006,-16698)"><tspan class="TextParagraph" font-family="Liberation Sans, sans-serif" font-size="353px" font-weight="400"><tspan class="TextPosition" x="12006" y="16698"><tspan fill="rgb(0,0,0)" stroke="none">40.000</tspan></tspan></tspan></text>
 <text class="TextShape" transform="translate(12602,16698) rotate(-44.9) translate(-12602,-16698)"><tspan class="TextParagraph" font-family="Liberation Sans, sans-serif" font-size="353px" font-weight="400"><tspan class="TextPosition" x="12602" y="16698"><tspan fill="rgb(0,0,0)" stroke="none">42.000</tspan></tspan></tspan></text>
 <text class="TextShape" transform="translate(13197,16698) rotate(-44.9) translate(-13197,-16698)"><tspan class="TextParagraph" font-family="Liberation Sans, sans-serif" font-size="353px" font-weight="400"><tspan class="TextPosition" x="13197" y="16698"><tspan fill="rgb(0,0,0)" stroke="none">44.000</tspan></tspan></tspan></text>
 <text class="TextShape" transform="translate(13792,16698) rotate(-44.9) translate(-13792,-16698)"><tspan class="TextParagraph" font-family="Liberation Sans, sans-serif" font-size="353px" font-weight="400"><tspan class="TextPosition" x="13792" y="16698"><tspan fill="rgb(0,0,0)" stroke="none">46.000</tspan></tspan></tspan></text>
 <text class="TextShape" transform="translate(14387,16698) rotate(-44.9) translate(-14387,-16698)"><tspan class="TextParagraph" font-family="Liberation Sans, sans-serif" font-size="353px" font-weight="400"><tspan class="TextPosition" x="14387" y="16698"><tspan fill="rgb(0,0,0)" stroke="none">48.000</tspan></tspan></tspan></text>
 <text class="TextShape" transform="translate(14982,16698) rotate(-44.9) translate(-14982,-16698)"><tspan class="TextParagraph" font-family="Liberation Sans, sans-serif" font-size="353px" font-weight="400"><tspan class="TextPosition" x="14982" y="16698"><tspan fill="rgb(0,0,0)" stroke="none">50.000</tspan></tspan></tspan></text>
 <text class="TextShape" transform="translate(15577,16698) rotate(-44.9) translate(-15577,-16698)"><tspan class="TextParagraph" font-family="Liberation Sans, sans-serif" font-size="353px" font-weight="400"><tspan class="TextPosition" x="15577" y="16698"><tspan fill="rgb(0,0,0)" stroke="none">52.000</tspan></tspan></tspan></text>
 <text class="TextShape" transform="translate(16172,16698) rotate(-44.9) translate(-16172,-16698)"><tspan class="TextParagraph" font-family="Liberation Sans, sans-serif" font-size="353px" font-weight="400"><tspan class="TextPosition" x="16172" y="16698"><tspan fill="rgb(0,0,0)" stroke="none">54.000</tspan></tspan></tspan></text>
 <text class="TextShape" transform="translate(16767,16698) rotate(-44.9) translate(-16767,-16698)"><tspan class="TextParagraph" font-family="Liberation Sans, sans-serif" font-size="353px" font-weight="400"><tspan class="TextPosition" x="16767" y="16698"><tspan fill="rgb(0,0,0)" stroke="none">56.000</tspan></tspan></tspan></text>
 <text class="TextShape" transform="translate(17362,16698) rotate(-44.9) translate(-17362,-16698)"><tspan class="TextParagraph" font-family="Liberation Sans, sans-serif" font-size="353px" font-weight="400"><tspan class="TextPosition" x="17362" y="16698"><tspan fill="rgb(0,0,0)" stroke="none">58.000</tspan></tspan></tspan></text>
 <text class="TextShape" transform="translate(17957,16698) rotate(-44.9) translate(-17957,-16698)"><tspan class="TextParagraph" font-family="Liberation Sans, sans-serif" font-size="353px" font-weight="400"><tspan class="TextPosition" x="17957" y="16698"><tspan fill="rgb(0,0,0)" stroke="none">60.000</tspan></tspan></tspan></text>
 <text class="TextShape" transform="translate(18552,16698) rotate(-44.9) translate(-18552,-16698)"><tspan class="TextParagraph" font-family="Liberation Sans, sans-serif" font-size="353px" font-weight="400"><tspan class="TextPosition" x="18552" y="16698"><tspan fill="rgb(0,0,0)" stroke="none">62.000</tspan></tspan></tspan></text>
 <text class="TextShape" transform="translate(19147,16698) rotate(-44.9) translate(-19147,-16698)"><tspan class="TextParagraph" font-family="Liberation Sans, sans-serif" font-size="353px" font-weight="400"><tspan class="TextPosition" x="19147" y="16698"><tspan fill="rgb(0,0,0)" stroke="none">64.000</tspan></tspan></tspan></text>
 <text class="TextShape" transform="translate(19742,16698) rotate(-44.9) translate(-19742,-16698)"><tspan class="TextParagraph" font-family="Liberation Sans, sans-serif" font-size="353px" font-weight="400"><tspan class="TextPosition" x="19742" y="16698"><tspan fill="rgb(0,0,0)" stroke="none">66.000</tspan></tspan></tspan></text>
 <text class="TextShape" transform="translate(20337,16698) rotate(-44.9) translate(-20337,-16698)"><tspan class="TextParagraph" font-family="Liberation Sans, sans-serif" font-size="353px" font-weight="400"><tspan class="TextPosition" x="20337" y="16698"><tspan fill="rgb(0,0,0)" stroke="none">68.000</tspan></tspan></tspan></text>
 <text class="TextShape" transform="translate(20932,16698) rotate(-44.9) translate(-20932,-16698)"><tspan class="TextParagraph" font-family="Liberation Sans, sans-serif" font-size="353px" font-weight="400"><tspan class="TextPosition" x="20932" y="16698"><tspan fill="rgb(0,0,0)" stroke="none">70.000</tspan></tspan></tspan></text>
 <text class="TextShape" transform="translate(21527,16698) rotate(-44.9) translate(-21527,-16698)"><tspan class="TextParagraph" font-family="Liberation Sans, sans-serif" font-size="353px" font-weight="400"><tspan class="TextPosition" x="21527" y="16698"><tspan fill="rgb(0,0,0)" stroke="none">72.000</tspan></tspan></tspan></text>
 <text class="TextShape" transform="translate(22121,16698) rotate(-44.9) translate(-22121,-16698)"><tspan class="TextParagraph" font-family="Liberation Sans, sans-serif" font-size="353px" font-weight="400"><tspan class="TextPosition" x="22121" y="16698"><tspan fill="rgb(0,0,0)" stroke="none">74.000</tspan></tspan></tspan></text>
 <text class="TextShape" transform="translate(22716,16698) rotate(-44.9) translate(-22716,-16698)"><tspan class="TextParagraph" font-family="Liberation Sans, sans-serif" font-size="353px" font-weight="400"><tspan class="TextPosition" x="22716" y="16698"><tspan fill="rgb(0,0,0)" stroke="none">76.000</tspan></tspan></tspan></text>
 <text class="TextShape" transform="translate(23311,16698) rotate(-44.9) translate(-23311,-16698)"><tspan class="TextParagraph" font-family="Liberation Sans, sans-serif" font-size="353px" font-weight="400"><tspan class="TextPosition" x="23311" y="16698"><tspan fill="rgb(0,0,0)" stroke="none">78.000</tspan></tspan></tspan></text>
 <text class="TextShape" transform="translate(23906,16698) rotate(-44.9) translate(-23906,-16698)"><tspan class="TextParagraph" font-family="Liberation Sans, sans-serif" font-size="353px" font-weight="400"><tspan class="TextPosition" x="23906" y="16698"><tspan fill="rgb(0,0,0)" stroke="none">80.000</tspan></tspan></tspan></text>
 <text class="TextShape" transform="translate(24502,16698) rotate(-44.9) translate(-24502,-16698)"><tspan class="TextParagraph" font-family="Liberation Sans, sans-serif" font-size="353px" font-weight="400"><tspan class="TextPosition" x="24502" y="16698"><tspan fill="rgb(0,0,0)" stroke="none">82.000</tspan></tspan></tspan></text>
 <text class="TextShape"><tspan class="TextParagraph" font-family="Liberation Sans, sans-serif" font-size="353px" font-weight="400"><tspan class="TextPosition" x="913" y="15614"><tspan fill="rgb(0,0,0)" stroke="none">0</tspan></tspan></tspan></text>
 <text class="TextShape"><tspan class="TextParagraph" font-family="Liberation Sans, sans-serif" font-size="353px" font-weight="400"><tspan class="TextPosition" x="728" y="13089"><tspan fill="rgb(0,0,0)" stroke="none">10</tspan></tspan></tspan></text>
 <text class="TextShape"><tspan class="TextParagraph" font-family="Liberation Sans, sans-serif" font-size="353px" font-weight="400"><tspan class="TextPosition" x="728" y="10564"><tspan fill="rgb(0,0,0)" stroke="none">20</tspan></tspan></tspan></text>
 <text class="TextShape"><tspan class="TextParagraph" font-family="Liberation Sans, sans-serif" font-size="353px" font-weight="400"><tspan class="TextPosition" x="728" y="8039"><tspan fill="rgb(0,0,0)" stroke="none">30</tspan></tspan></tspan></text>
 <text class="TextShape"><tspan class="TextParagraph" font-family="Liberation Sans, sans-serif" font-size="353px" font-weight="400"><tspan class="TextPosition" x="728" y="5514"><tspan fill="rgb(0,0,0)" stroke="none">40</tspan></tspan></tspan></text>
 <text class="TextShape"><tspan class="TextParagraph" font-family="Liberation Sans, sans-serif" font-size="353px" font-weight="400"><tspan class="TextPosition" x="728" y="2989"><tspan fill="rgb(0,0,0)" stroke="none">50</tspan></tspan></tspan></text>
 <text class="TextShape"><tspan class="TextParagraph" font-family="Liberation Sans, sans-serif" font-size="353px" font-weight="400"><tspan class="TextPosition" x="728" y="465"><tspan fill="rgb(0,0,0)" stroke="none">60</tspan></tspan></tspan></text>
 <text class="TextShape"><tspan class="TextParagraph" font-family="Liberation Sans, sans-serif" font-size="353px" font-weight="400"><tspan class="TextPosition" x="25399" y="15614"><tspan fill="rgb(0,0,0)" stroke="none">0</tspan></tspan></tspan></text>
 <text class="TextShape"><tspan class="TextParagraph" font-family="Liberation Sans, sans-serif" font-size="353px" font-weight="400"><tspan class="TextPosition" x="25399" y="13449"><tspan fill="rgb(0,0,0)" stroke="none">1.000</tspan></tspan></tspan></text>
 <text class="TextShape"><tspan class="TextParagraph" font-family="Liberation Sans, sans-serif" font-size="353px" font-weight="400"><tspan class="TextPosition" x="25399" y="11285"><tspan fill="rgb(0,0,0)" stroke="none">2.000</tspan></tspan></tspan></text>
 <text class="TextShape"><tspan class="TextParagraph" font-family="Liberation Sans, sans-serif" font-size="353px" font-weight="400"><tspan class="TextPosition" x="25399" y="9121"><tspan fill="rgb(0,0,0)" stroke="none">3.000</tspan></tspan></tspan></text>
 <text class="TextShape"><tspan class="TextParagraph" font-family="Liberation Sans, sans-serif" font-size="353px" font-weight="400"><tspan class="TextPosition" x="25399" y="6957"><tspan fill="rgb(0,0,0)" stroke="none">4.000</tspan></tspan></tspan></text>
 <text class="TextShape"><tspan class="TextParagraph" font-family="Liberation Sans, sans-serif" font-size="353px" font-weight="400"><tspan class="TextPosition" x="25399" y="4793"><tspan fill="rgb(0,0,0)" stroke="none">5.000</tspan></tspan></tspan></text>
 <text class="TextShape"><tspan class="TextParagraph" font-family="Liberation Sans, sans-serif" font-size="353px" font-weight="400"><tspan class="TextPosition" x="25399" y="2629"><tspan fill="rgb(0,0,0)" stroke="none">6.000</tspan></tspan></tspan></text>
 <text class="TextShape"><tspan class="TextParagraph" font-family="Liberation Sans, sans-serif" font-size="353px" font-weight="400"><tspan class="TextPosition" x="25399" y="465"><tspan fill="rgb(0,0,0)" stroke="none">7.000</tspan></tspan></tspan></text>
 <path fill="none" stroke="rgb(255,211,32)" stroke-width="80" stroke-linejoin="round" d="M 26979,7902 L 27779,7902"/>
 <path fill="none" stroke="rgb(87,157,28)" stroke-width="80" stroke-linejoin="round" d="M 26979,8400 L 27779,8400"/>
 <path fill="none" stroke="rgb(126,0,33)" stroke-width="80" stroke-linejoin="round" d="M 26979,8897 L 27779,8897"/>
 <path fill="none" stroke="rgb(131,202,255)" stroke-width="80" stroke-linejoin="round" d="M 26979,9395 L 27779,9395"/>
 <text class="TextShape"><tspan class="TextParagraph" font-family="Liberation Sans, sans-serif" font-size="353px" font-weight="400"><tspan class="TextPosition" x="27879" y="8022"><tspan fill="rgb(0,0,0)" stroke="none">rtt (ms)</tspan></tspan></tspan></text>
 <text class="TextShape"><tspan class="TextParagraph" font-family="Liberation Sans, sans-serif" font-size="353px" font-weight="400"><tspan class="TextPosition" x="27879" y="8520"><tspan fill="rgb(0,0,0)" stroke="none">simulator pods</tspan></tspan></tspan></text>
 <text class="TextShape"><tspan class="TextParagraph" font-family="Liberation Sans, sans-serif" font-size="353px" font-weight="400"><tspan class="TextPosition" x="27879" y="9017"><tspan fill="rgb(0,0,0)" stroke="none">adapter pods</tspan></tspan></tspan></text>
 <text class="TextShape"><tspan class="TextParagraph" font-family="Liberation Sans, sans-serif" font-size="353px" font-weight="400"><tspan class="TextPosition" x="27879" y="9515"><tspan fill="rgb(0,0,0)" stroke="none">msgs/s/instance</tspan></tspan></tspan></text>
</svg>